<svg width="1366" height="702" viewBox="0 0 1366 702" fill="none" xmlns="http://www.w3.org/2000/svg">
    <path d="M-156.371 954.917C628.901 372.296 969.549 720.87 1138.26 456.561C1224.55 321.392 1167.76 -6.36149 1514.55 -180.654C1777.13 -312.618 2103.44 -101.676 2250.06 333.732" stroke="#73DC78" stroke-width="0.6438" stroke-miterlimit="10"/>
    <path d="M-156.371 946.49C387.828 533.625 719.933 599.861 924.953 576.122C1013.84 565.907 1079.16 540.815 1127.55 459.86C1173.37 383.198 1177.43 249.362 1230.81 116.573C1274.14 9.4785 1350.14 -96.7275 1503.84 -172.945C1548.13 -194.876 1594.2 -207.258 1640.83 -210.674C1872.19 -227.761 2112.24 -31.5383 2233.35 308.873" stroke="#73DC78" stroke-width="0.6634" stroke-miterlimit="10"/>
    <path d="M-156.371 938.062C383.366 519.413 716 604.376 918.461 581.462C1006.71 571.618 1070.9 545.426 1116.84 463.17C1160.57 384.869 1164.59 251.53 1218.37 120.612C1262.13 14.0995 1339.96 -90.3195 1493.12 -165.247C1537.39 -186.84 1583.39 -199.106 1629.9 -202.627C1862.22 -220.518 2096.29 -34.9008 2216.65 283.992" stroke="#73DC78" stroke-width="0.683" stroke-miterlimit="10"/>
    <path d="M-156.371 929.634C378.915 505.18 712.057 608.88 911.969 586.791C999.587 577.327 1062.63 550.004 1106.13 466.469C1147.76 386.529 1151.9 253.74 1205.95 124.651C1250.27 18.7836 1329.8 -83.9118 1482.41 -157.55C1526.66 -178.793 1572.59 -190.943 1618.97 -194.57C1852.26 -213.254 2080.35 -38.253 2199.94 259.111" stroke="#73DC78" stroke-width="0.7026" stroke-miterlimit="10"/>
    <path d="M-156.36 921.196C374.474 490.958 708.113 613.385 905.488 592.121C992.471 583.027 1054.37 554.561 1095.43 469.757C1134.95 388.147 1139.24 255.95 1193.53 128.68C1238.41 23.4468 1319.63 -77.525 1471.7 -149.862C1515.93 -170.767 1561.79 -182.8 1608.05 -186.533C1842.3 -206.011 2064.41 -41.626 2183.25 234.22" stroke="#73DC78" stroke-width="0.7222" stroke-miterlimit="10"/>
    <path d="M-156.36 912.769C370.023 476.736 704.18 617.9 898.996 597.45C985.345 588.726 1046.07 559.108 1084.72 473.057C1122.14 389.765 1126.58 258.16 1181.09 132.709C1226.53 28.1206 1309.46 -71.1277 1460.99 -142.175C1505.19 -162.741 1551 -174.648 1597.12 -178.486C1832.34 -198.757 2048.46 -44.9886 2166.54 209.339" stroke="#73DC78" stroke-width="0.7417" stroke-miterlimit="10"/>
    <path d="M-156.36 904.341C365.571 462.503 700.194 621.95 892.504 602.768C978.198 594.225 1037.77 563.623 1074.01 476.345C1109.3 391.361 1113.92 260.369 1168.66 136.737C1214.68 32.7836 1299.29 -64.7305 1450.27 -134.477C1494.44 -154.695 1540.19 -166.495 1586.18 -170.44C1822.37 -191.503 2032.52 -48.3407 2149.84 184.458" stroke="#73DC78" stroke-width="0.7613" stroke-miterlimit="10"/>
    <path d="M-156.36 895.914C361.11 448.281 696.239 626.402 886.013 608.108C971.072 599.903 1029.46 568.149 1063.31 479.655C1096.47 392.968 1101.3 262.601 1156.25 140.787C1202.84 37.4785 1289.13 -58.3226 1439.57 -126.769C1483.72 -146.648 1529.41 -158.322 1575.27 -162.371C1812.43 -184.228 2016.6 -51.6821 2133.15 159.599" stroke="#73DC78" stroke-width="0.7809" stroke-miterlimit="10"/>
    <path d="M-156.35 887.486C356.669 434.059 692.306 630.853 879.531 613.438C963.956 605.581 1021.13 572.654 1052.61 482.954C1083.63 394.544 1088.66 264.832 1143.82 144.816C1191.01 42.1523 1278.82 -52.253 1428.86 -119.081C1472.95 -138.717 1518.62 -150.084 1564.34 -154.335C1802.52 -176.488 2000.64 -55.0551 2116.45 134.697" stroke="#73DC78" stroke-width="0.8005" stroke-miterlimit="10"/>
    <path d="M-156.35 879.059C352.218 419.837 688.363 635.316 873.04 618.767C956.83 611.26 1012.79 577.137 1041.9 486.242C1070.76 396.109 1076.04 267.042 1131.39 148.845C1179.16 46.8262 1268.63 -45.8979 1418.14 -111.394C1462.2 -130.702 1507.82 -141.921 1553.41 -146.288C1792.56 -169.192 1984.7 -58.4176 2099.74 109.816" stroke="#73DC78" stroke-width="0.8201" stroke-miterlimit="10"/>
    <path d="M-156.35 870.631C347.767 405.605 684.419 639.767 866.548 624.097C949.704 616.938 1004.44 581.621 1031.19 489.542C1057.88 397.674 1063.43 269.273 1118.96 152.884C1167.33 51.5105 1258.44 -39.5217 1407.43 -103.696C1451.46 -122.666 1497.02 -133.758 1542.47 -138.241C1782.6 -161.906 1968.75 -61.7801 2083.04 84.9352" stroke="#73DC78" stroke-width="0.8397" stroke-miterlimit="10"/>
    <path d="M-156.35 862.204C343.315 391.382 680.475 644.24 860.056 629.436C942.578 622.637 996.066 586.104 1020.48 492.851C1044.99 399.228 1050.81 271.515 1106.53 156.934C1155.51 56.2053 1248.27 -33.1245 1396.72 -95.9768C1440.73 -114.619 1486.23 -125.574 1531.55 -130.163C1772.65 -154.589 1952.81 -65.1005 2066.34 60.086" stroke="#73DC78" stroke-width="0.8593" stroke-miterlimit="10"/>
    <path d="M-156.35 853.776C338.864 377.16 676.532 648.702 853.564 634.766C935.452 628.316 987.682 590.577 1009.77 496.15C1032.08 400.783 1038.22 273.756 1094.1 160.963C1143.69 60.8896 1238.09 -26.7589 1386 -88.2895C1429.99 -106.593 1475.42 -117.421 1520.61 -122.126C1762.68 -147.314 1936.85 -68.4736 2049.63 35.1946" stroke="#73DC78" stroke-width="0.8788" stroke-miterlimit="10"/>
    <path d="M-156.339 845.348C334.413 362.938 672.598 653.175 847.073 640.095C928.326 634.004 979.287 595.039 999.058 499.449C1019.16 402.316 1025.63 275.998 1081.66 165.002C1131.86 65.5739 1227.91 -20.3722 1375.27 -80.5915C1419.25 -98.5569 1464.62 -109.258 1509.68 -114.069C1752.72 -140.028 1920.91 -71.8256 2032.92 10.3138" stroke="#73DC78" stroke-width="0.8984" stroke-miterlimit="10"/>
    <path d="M-156.339 836.921C329.962 348.716 668.655 657.659 840.591 645.425C921.21 639.683 970.882 599.491 988.369 502.738C1006.24 403.849 1013.07 278.229 1069.26 169.031C1120.09 70.2583 1217.76 -13.9959 1364.59 -72.904C1408.53 -90.531 1453.84 -101.105 1498.78 -106.033C1742.78 -132.764 1905 -75.1986 2016.25 -14.5775" stroke="#73DC78" stroke-width="0.918" stroke-miterlimit="10"/>
    <path d="M-156.339 828.493C325.511 334.494 664.722 662.142 834.1 650.754C914.084 645.372 962.455 603.942 977.659 506.037C993.296 405.382 1000.5 280.471 1056.83 173.059C1108.29 74.9426 1207.59 -7.60919 1353.88 -65.2167C1397.79 -82.5159 1443.04 -92.9631 1487.84 -97.9964C1732.82 -125.5 1889.04 -78.5612 1999.54 -39.4689" stroke="#73DC78" stroke-width="0.9376" stroke-miterlimit="10"/>
    <path d="M-156.339 820.066C321.06 320.272 660.778 666.636 827.608 656.094C906.958 651.082 954.007 608.405 966.949 509.347C980.323 406.926 987.936 282.734 1044.4 177.109C1096.5 79.6586 1197.41 -1.20132 1343.15 -57.4977C1387.05 -74.4585 1432.23 -84.7788 1476.91 -89.9178C1722.86 -118.203 1873.1 -81.8921 1982.84 -64.318" stroke="#73DC78" stroke-width="0.9572" stroke-miterlimit="10"/>
    <path d="M-156.339 811.638C316.608 306.05 656.834 671.13 821.116 661.423C899.832 656.77 945.549 612.856 956.238 512.646C967.35 408.449 975.375 284.986 1031.96 181.148C1084.71 84.3534 1187.24 5.19588 1332.43 -49.7999C1376.31 -66.4223 1421.43 -76.6263 1465.97 -81.8711C1712.89 -110.95 1857.15 -85.2548 1966.12 -89.1989" stroke="#73DC78" stroke-width="0.9768" stroke-miterlimit="10"/>
    <path d="M-156.329 803.211C312.157 291.817 652.901 675.624 814.624 666.752C892.705 662.47 937.08 617.308 945.528 515.945C954.356 409.982 962.836 287.238 1019.54 185.177C1072.94 89.0484 1177.07 11.5828 1321.72 -42.1124C1365.58 -58.3859 1410.63 -68.4735 1455.05 -73.824C1702.94 -103.696 1841.2 -88.6171 1949.43 -114.09" stroke="#73DC78" stroke-width="0.9964" stroke-miterlimit="10"/>
    <path d="M-156.329 794.773C307.706 277.584 648.968 680.118 808.133 672.071C885.59 668.159 928.601 621.749 934.817 519.223C941.351 411.494 950.296 289.49 1007.1 189.195C1061.17 93.7432 1166.9 17.9588 1311.01 -34.4357C1354.85 -50.3709 1399.84 -60.3422 1444.11 -65.7984C1692.97 -96.4633 1825.26 -92.001 1932.72 -138.992" stroke="#73DC78" stroke-width="1.0159" stroke-miterlimit="10"/>
    <path d="M-156.329 786.345C303.255 263.362 645.035 684.633 801.641 677.4C878.464 673.858 920.11 626.211 924.107 522.522C928.336 413.027 937.778 291.753 994.671 193.235C1049.41 98.4593 1156.73 24.3667 1300.29 -26.7378C1344.11 -42.3346 1389.03 -52.179 1433.18 -57.741C1683.02 -89.1883 1809.32 -95.3318 1916.03 -163.852" stroke="#73DC78" stroke-width="1.0355" stroke-miterlimit="10"/>
    <path d="M-156.329 777.918C298.804 249.14 641.091 689.148 795.149 682.74C871.338 679.568 911.61 630.674 913.407 525.832C915.31 414.571 925.27 294.037 982.258 197.285C1037.68 103.186 1146.58 30.7853 1289.59 -19.0186C1333.38 -34.277 1378.25 -44.0051 1422.26 -49.6729C1673.06 -81.9449 1793.38 -98.6837 1899.32 -188.722" stroke="#73DC78" stroke-width="1.0551" stroke-miterlimit="10"/>
    <path d="M-156.329 769.49C294.352 234.918 637.158 693.674 788.657 688.07C864.211 685.278 903.098 635.136 902.697 529.131C902.274 416.115 912.762 296.311 969.824 201.313C1025.93 107.902 1136.41 37.1931 1278.87 -11.3313C1322.64 -26.2408 1367.44 -35.8632 1411.33 -41.626C1663.09 -74.7018 1777.43 -102.046 1882.62 -213.603" stroke="#73DC78" stroke-width="1.0747" stroke-miterlimit="10"/>
    <path d="M-156.318 761.063C289.912 220.696 633.225 698.2 782.176 693.399C857.096 690.988 894.587 639.598 891.997 532.43C889.227 417.648 900.276 298.595 957.401 205.353C1014.21 112.629 1126.26 43.6115 1268.16 -3.63343C1311.91 -18.1939 1356.64 -27.7106 1400.41 -33.5792C1653.14 -67.4691 1761.49 -105.409 1865.92 -238.484" stroke="#73DC78" stroke-width="1.0943" stroke-miterlimit="10"/>
    <path d="M-156.318 752.635C285.45 206.473 629.292 702.736 775.684 698.728C849.98 696.698 886.055 644.06 881.287 535.718C876.159 419.192 887.778 300.879 944.967 209.381C1002.48 117.355 1116.09 50.0194 1257.45 4.0539C1301.18 -10.1682 1345.84 -19.5686 1389.47 -25.5324C1643.17 -60.2471 1745.55 -108.771 1849.22 -263.375" stroke="#73DC78" stroke-width="1.1139" stroke-miterlimit="10"/>
    <path d="M-156.318 744.207C280.999 192.241 625.348 707.272 769.193 704.058C842.854 702.408 877.512 648.533 870.576 539.017C863.091 420.736 875.302 303.173 932.544 213.41C990.78 122.092 1105.93 56.4273 1246.74 11.7413C1290.45 -2.13192 1335.04 -11.4265 1378.55 -17.496C1633.21 -53.0355 1729.6 -112.134 1832.52 -288.266" stroke="#73DC78" stroke-width="1.1335" stroke-miterlimit="10"/>
    <path d="M-156.318 735.78C276.548 178.018 621.415 711.829 762.701 709.397C835.728 708.139 868.959 653.016 859.866 542.327C850.012 422.311 862.826 305.489 920.11 217.46C979.065 126.851 1095.77 62.8669 1236.02 19.4603C1279.72 5.93607 1324.24 -3.2528 1367.61 -9.41748C1623.23 -45.7817 1713.65 -115.465 1815.81 -313.115" stroke="#73DC78" stroke-width="1.153" stroke-miterlimit="10"/>
    <path d="M-156.318 727.352C272.096 163.797 617.482 716.377 756.209 714.727C828.602 713.86 860.405 657.5 849.166 545.626C836.923 423.866 850.371 307.794 907.687 221.499C967.382 131.609 1085.62 69.2961 1225.31 27.1584C1268.98 13.9831 1313.44 4.89998 1356.69 -1.37045C1613.27 -38.57 1697.72 -118.827 1799.11 -337.996" stroke="#73DC78" stroke-width="1.1726" stroke-miterlimit="10"/>
    <path d="M-156.308 718.925C267.656 149.574 613.549 720.944 749.728 720.056C821.497 719.591 851.852 661.983 838.466 548.925C823.833 425.431 837.927 310.11 895.275 225.528C955.72 136.367 1075.47 75.7251 1214.62 34.8457C1258.27 22.0193 1302.67 13.0419 1345.78 6.67634C1603.32 -31.3586 1681.79 -122.19 1782.43 -362.877" stroke="#73DC78" stroke-width="1.1922" stroke-miterlimit="10"/>
    <path d="M-156.308 710.497C263.194 135.352 609.616 724.275 743.236 725.386C814.371 725.978 843.288 666.478 827.756 552.214C810.734 426.996 825.483 312.426 882.841 229.557C944.037 141.136 1065.31 82.1542 1203.9 42.5331C1247.53 30.0557 1291.84 21.0995 1334.84 14.7128C1593.29 -24.644 1665.84 -125.563 1765.72 -387.779" stroke="#73DC78" stroke-width="1.2118" stroke-miterlimit="10"/>
    <path d="M-156.308 702.07C258.743 121.13 605.672 730.08 736.744 730.715C807.245 731.053 834.713 670.971 817.046 555.513C797.613 428.571 813.039 314.762 870.407 233.596C932.375 145.916 1055.15 88.5936 1193.18 50.2309C1236.8 38.113 1281.04 29.2519 1323.91 22.77C1583.32 -17.3797 1649.9 -128.904 1749.02 -412.649" stroke="#73DC78" stroke-width="1.2314" stroke-miterlimit="10"/>
    <path d="M-156.308 693.642C254.292 106.908 601.739 734.67 730.253 736.055C800.118 736.806 826.138 675.486 806.335 558.823C784.492 430.168 800.605 317.11 857.973 237.646C920.724 150.727 1045.06 95.3082 1182.46 57.95C1226.08 46.2657 1270.23 37.4363 1312.97 30.8381C1573.35 -10.1047 1633.94 -132.246 1732.3 -437.509" stroke="#73DC78" stroke-width="1.251" stroke-miterlimit="10"/>
    <path d="M-156.308 685.215C249.84 92.6752 597.795 739.259 723.761 741.384C792.992 742.558 817.553 679.991 795.625 562.122C771.371 431.754 788.182 319.457 845.55 241.675C909.083 155.528 1034.89 101.695 1171.75 65.6374C1215.35 54.2914 1259.44 45.5784 1302.05 38.8744C1563.39 -2.86148 1618 -135.619 1715.61 -462.4" stroke="#73DC78" stroke-width="1.2706" stroke-miterlimit="10"/>
    <path d="M-156.297 676.787C245.4 78.4531 593.862 743.858 717.28 746.713C785.877 748.3 808.978 684.506 784.925 565.421C758.25 433.351 775.769 321.815 833.127 245.714C897.463 160.339 1024.73 108.103 1161.05 73.3352C1204.63 62.3382 1248.65 53.7414 1291.12 46.9317C1553.44 4.39224 1602.06 -138.971 1698.91 -487.271" stroke="#73DC78" stroke-width="1.2902" stroke-miterlimit="10"/>
    <path d="M-156.297 668.36C240.948 64.231 589.918 748.68 710.788 752.043C778.75 754.179 800.393 689.021 774.225 568.709C745.129 434.937 763.367 324.173 820.704 249.743C885.854 165.161 1014.56 114.5 1150.34 81.0226C1193.9 70.3639 1237.86 61.8835 1280.2 54.9681C1543.48 11.6355 1586.13 -142.344 1682.22 -512.172" stroke="#73DC78" stroke-width="1.3097" stroke-miterlimit="10"/>
    <path d="M-156.297 659.921C236.487 49.9983 585.974 753.174 704.296 757.362C771.624 759.878 791.66 693.568 763.515 571.998C731.828 436.576 751.113 326.648 808.281 253.761C874.414 170.12 1004.4 120.887 1139.63 88.6994C1183.16 78.3791 1227.06 70.0256 1269.27 63.0044C1533.52 18.8788 1570.18 -145.707 1665.51 -537.064" stroke="#73DC78" stroke-width="1.3293" stroke-miterlimit="10"/>
    <path d="M-156.297 651.494C232.036 35.7762 582.031 757.689 697.804 762.701C764.498 765.588 783.202 698.073 752.805 575.308C718.844 438.151 738.563 328.932 795.847 257.811C884.236 148.052 1085.99 100.267 1258.34 71.0724C1523.55 26.1538 1554.23 -149.048 1648.81 -561.923" stroke="#73DC78" stroke-width="1.3489" stroke-miterlimit="10"/>
</svg>
