<svg width="160" height="78" viewBox="0 0 160 78" fill="none" xmlns="http://www.w3.org/2000/svg">
    <path d="M147.187 32.0588C146.118 32.0588 145.258 32.9221 145.258 33.9748C145.258 35.0486 146.097 35.9118 147.187 35.9118C148.257 35.9118 149.096 35.0697 149.096 33.9748C149.096 32.901 148.257 32.0588 147.187 32.0588ZM148.278 35.1749C148.005 35.4486 147.628 35.6171 147.229 35.6171H147.208C146.286 35.6171 145.594 34.9012 145.594 33.9748C145.594 33.0484 146.286 32.3325 147.166 32.3325H147.187C148.068 32.3325 148.76 33.0484 148.76 33.9748C148.76 34.438 148.592 34.8802 148.278 35.1749Z" fill="#00004B"/>
    <path d="M147.208 34.2484L147.628 34.9854H148.089L147.607 34.1853H147.628C147.9 34.1221 148.047 33.9326 148.047 33.5958C148.047 33.1325 147.838 32.9641 147.292 32.9641H146.37V34.9854H146.789V34.2274L147.208 34.2484ZM146.789 33.2799H147.271C147.523 33.2799 147.628 33.3642 147.628 33.5958C147.628 33.8274 147.523 33.9116 147.271 33.9116H146.789V33.2799Z" fill="#00004B"/>
    <path d="M27.1769 48.6077C20.9069 48.6077 16.3564 43.9336 16.3564 37.5119C16.3564 31.2166 20.8859 26.6477 27.114 26.6477C29.7771 26.6477 32.1048 27.3846 34.034 28.8163C34.5373 29.1953 34.6421 29.7638 34.3066 30.3112C34.3066 30.3112 33.4888 31.4903 33.2791 31.764C30.6369 29.7848 28.8125 29.5111 27.2188 29.5111C22.6893 29.5111 19.5229 32.7746 19.5229 37.4698C19.5229 41.5755 22.1651 45.7232 27.2398 45.7232C29.4836 45.7232 31.6644 44.8179 33.7195 43.0282C33.9082 43.2598 34.4954 43.9967 34.8309 44.4178C35.2083 44.9232 35.1454 45.4916 34.6631 45.9338C34.1598 46.3759 31.4128 48.6077 27.1769 48.6077Z" fill="#00004B"/>
    <path d="M37.8715 48.2076V33.4904C37.8715 32.8587 38.207 32.5218 38.8361 32.5218H40.6814V33.7851C40.6814 34.4378 40.5975 34.9642 40.5975 34.9642L40.5766 35.0273H40.7443L40.7653 35.0063C41.9396 32.7324 44.2463 32.3955 45.5045 32.3955H45.5464C46.1965 32.3955 46.4901 32.6903 46.4901 33.364V35.1537C41.3944 35.28 40.8072 38.9646 40.8072 41.7227V47.218C40.8072 47.8707 40.4927 48.1865 39.8426 48.1865H37.8715V48.2076Z" fill="#00004B"/>
    <path d="M55.7168 48.5865C50.9356 48.5865 47.3079 45.0493 47.3079 40.3331C47.3079 35.6589 50.9147 32.1428 55.7168 32.1428C60.5189 32.1428 64.1467 35.6589 64.1467 40.3331C64.1467 45.0493 60.5189 48.5865 55.7168 48.5865ZM55.7168 34.6694C52.6552 34.6694 50.2436 37.1538 50.2436 40.3331C50.2436 43.5544 52.6342 46.0599 55.7168 46.0599C58.8413 46.0599 61.1899 43.5965 61.1899 40.3331C61.1689 37.1117 58.8203 34.6694 55.7168 34.6694Z" fill="#00004B"/>
    <path d="M66.8729 56.7138L66.8939 33.4905C66.8939 32.8378 67.2084 32.522 67.8585 32.522H69.578V33.6168C69.578 34.08 69.5151 34.438 69.5151 34.459V34.5222H69.6619L69.6829 34.5011C70.3539 33.6168 71.9896 32.1641 75.2818 32.1641C79.5177 32.1641 82.4955 35.5539 82.4955 40.3754C82.4955 45.1337 79.371 48.5867 75.0721 48.5867C73.5413 48.5867 71.4234 48.2498 69.8716 46.5865L69.8506 46.5655H69.6829L69.7039 46.6286C69.7039 46.6286 69.7877 47.1971 69.7877 47.9972V55.7453C69.7877 56.398 69.4732 56.7138 68.8441 56.7138H66.8729ZM74.8624 34.6906C72.3251 34.6906 69.7668 36.4592 69.7668 40.4175C69.7668 43.6389 71.9267 46.0601 74.7786 46.0601C77.1481 46.0601 79.5387 44.3126 79.5387 40.3964C79.5387 36.9856 77.6514 34.6906 74.8624 34.6906Z" fill="#00004B"/>
    <path d="M99.1875 48.2078L95.9162 38.1016C95.6436 37.3015 95.4758 36.3961 95.4758 36.3961V36.354H95.329V36.3961C95.329 36.3961 95.1403 37.3015 94.8677 38.1016C94.8677 38.1016 92.0577 46.7971 91.869 47.4077C91.6803 47.9762 91.3657 48.2078 90.7995 48.2078H88.388L83.6698 33.5959C83.5649 33.259 83.5859 32.9853 83.7327 32.7958C83.8795 32.6063 84.1311 32.501 84.4876 32.501H86.3749L89.6881 43.1757C89.8978 43.9758 90.0656 44.8391 90.0656 44.8601V44.9022H90.2124V44.8601C90.2124 44.8601 90.4011 43.9758 90.6527 43.1757C90.6527 43.1757 93.6724 33.7643 93.8192 33.259C94.0289 32.6063 94.3644 32.48 94.8677 32.48H96.6711L100.131 43.1757C100.341 43.9758 100.53 44.8391 100.53 44.8601V44.9022H100.676V44.8601C100.676 44.8601 100.844 43.9758 101.075 43.1757C101.096 43.0915 104.032 33.7011 104.157 33.2801C104.325 32.7116 104.64 32.48 105.227 32.48H107.45C107.093 33.5748 102.815 46.7971 102.627 47.3445C102.438 47.9341 102.144 48.1657 101.536 48.1657H99.1875V48.2078Z" fill="#00004B"/>
    <path d="M109.735 48.2077V33.4905C109.735 32.8588 110.071 32.522 110.7 32.522H112.629V47.2181C112.629 47.8708 112.294 48.2077 111.664 48.2077H109.735Z" fill="#00004B"/>
    <path d="M121.014 48.5655C118.98 48.5655 117.219 47.997 115.751 46.8601C115.143 46.3969 115.311 45.8705 115.562 45.5336C115.856 45.0915 116.233 44.5441 116.401 44.3335C117.219 45.0283 118.897 46.1653 121.119 46.1653C122.776 46.1653 123.845 45.3231 123.845 44.0177C123.845 42.6492 122.336 42.0807 120.574 41.428C118.309 40.5858 115.73 39.6173 115.73 36.6275C115.73 33.5114 118.561 32.1218 121.371 32.1218C123.447 32.1218 124.81 32.7956 125.649 33.3009C126.215 33.6378 126.341 34.101 126.005 34.6484C125.754 35.0695 125.439 35.5748 125.355 35.7222C124.055 34.8589 122.818 34.501 121.224 34.501C119.568 34.501 118.519 35.28 118.519 36.5433C118.519 37.954 120.05 38.5014 121.811 39.1541C124.076 39.9963 126.634 40.9227 126.634 43.9335C126.613 46.6706 124.307 48.5655 121.014 48.5655Z" fill="#00004B"/>
    <path d="M137.29 48.5867C132.488 48.5867 129.007 45.1338 129.007 40.3754C129.007 35.5328 132.215 32.1641 136.828 32.1641C141.001 32.1641 143.602 35.1538 143.602 39.9543C143.602 40.5859 143.098 40.9649 142.595 40.9649C142.113 40.9649 131.984 40.9649 131.984 40.9649V41.0281C132.257 44.0179 134.522 46.1023 137.478 46.1023C139.722 46.1023 141.337 44.9232 142.113 44.3337L142.868 45.6391C143.161 46.1444 143.056 46.6076 142.574 46.9445C141.672 47.534 139.785 48.5867 137.29 48.5867ZM136.744 34.4169C134.312 34.4169 132.53 36.0592 132.089 38.67V38.7331H140.624V38.67C140.54 36.0592 139.051 34.4169 136.744 34.4169Z" fill="#00004B"/>
    <path d="M123.051 16.5415C122.401 16.6257 120.451 16.8784 118.542 17.3205C115.942 17.9101 113.573 18.8365 111.937 20.3524C110.888 21.3209 110.196 22.3947 109.861 23.9528C109.504 25.595 109.714 27.4268 110.259 29.448C110.888 29.3006 111.497 29.2796 112.126 29.2164C113.048 29.1533 114.181 29.069 115.397 28.8585C117.2 28.5427 118.459 27.911 119.612 26.374C120.597 25.0265 120.912 23.1527 121.206 21.8052C121.583 20.0155 121.961 18.7944 122.317 17.9732C122.569 17.4679 122.715 17.11 123.051 16.5415ZM118.794 26.2056C118.06 27.111 117.2 27.7215 115.67 28.0374C117.829 26.9636 118.417 24.8792 118.752 23.7001C118.941 23.0053 119.13 22.0789 119.318 21.1946C119.591 20.0155 119.989 18.5628 120.451 17.6785C120.828 17.6153 121.604 17.489 121.709 17.4679C121.394 18.1627 120.912 19.3628 120.388 22.0368C119.968 24.2686 119.486 25.3845 118.794 26.2056ZM114.013 19.7418C112.293 21.2578 111.811 22.6895 111.58 23.9738C111.329 25.4055 111.559 27.0267 111.853 28.3742C111.476 28.4585 111.014 28.5427 110.846 28.5848C110.469 27.1531 110.301 25.5319 110.616 24.1422C111.098 21.9315 112.461 20.7103 114.013 19.7418ZM112.335 24.037C112.629 22.4368 113.51 20.6682 115.879 19.1102C114.076 20.963 113.635 22.121 113.363 23.5106C113.132 24.6265 113.237 26.1424 113.531 27.5531C113.237 27.7847 112.86 27.9742 112.566 28.1005C112.251 26.6899 112.126 25.0687 112.335 24.037ZM114.181 27.0057C113.992 25.953 113.887 24.7318 114.055 23.8054C114.411 21.8473 115.565 20.184 117.284 18.7944C116.97 19.6155 116.739 20.6261 116.613 21.2156C116.341 22.521 116.11 23.7422 115.732 24.7107C115.292 25.8056 114.831 26.3951 114.181 27.0057ZM113.384 28.3532C114.768 27.7426 115.774 26.6056 116.362 25.1739C116.844 24.0159 117.054 22.9 117.326 21.5736C117.452 20.984 117.808 19.4049 118.249 18.3312C118.542 18.2048 119.109 18.0153 119.57 17.889C119.109 18.8996 118.752 20.3103 118.5 21.4683C118.081 23.4264 117.767 24.9844 116.865 26.2056C115.963 27.3847 114.726 28.0163 113.384 28.3532Z" fill="#73DC78"/>
</svg>
