<svg width="31" height="31" viewBox="0 0 31 31" fill="none" xmlns="http://www.w3.org/2000/svg">
<path d="M1.93758 31.15H8.39591C8.83526 31.15 9.19175 30.7935 9.19175 30.3542V23.25C9.19175 22.4555 8.54602 21.8083 7.75008 21.8083H2.58341C1.78747 21.8083 1.14175 22.4555 1.14175 23.25V30.3542C1.14175 30.7935 1.49824 31.15 1.93758 31.15ZM7.60008 23.4V29.5583H2.73341V23.4H7.60008Z" fill="#14803C" stroke="#14803C" stroke-width="0.3"/>
<path d="M12.2708 31.15H18.7292C19.1685 31.15 19.525 30.7935 19.525 30.3542V15.5C19.525 14.7055 18.8793 14.0583 18.0833 14.0583H12.9167C12.1207 14.0583 11.475 14.7055 11.475 15.5V30.3542C11.475 30.7935 11.8315 31.15 12.2708 31.15ZM17.9333 15.65V29.5583H13.0667V15.65H17.9333Z" fill="#14803C" stroke="#14803C" stroke-width="0.3"/>
<path d="M22.6041 31.15H29.0624C29.5018 31.15 29.8583 30.7935 29.8583 30.3542V18.0833C29.8583 17.2889 29.2125 16.6417 28.4166 16.6417H23.2499C22.454 16.6417 21.8083 17.2889 21.8083 18.0833V30.3542C21.8083 30.7935 22.1647 31.15 22.6041 31.15ZM28.2666 18.2333V29.5583H23.3999V18.2333H28.2666Z" fill="#14803C" stroke="#14803C" stroke-width="0.3"/>
<path d="M2.66585 14.1258L2.66639 14.1264C2.82193 14.2803 3.02556 14.3583 3.22916 14.3583C3.43263 14.3583 3.63662 14.2804 3.79119 14.1258L3.69017 14.0248L3.79119 14.1258L9.93115 7.98586L19.8282 10.4582C19.8282 10.4582 19.8282 10.4582 19.8282 10.4582C20.1011 10.5264 20.388 10.4472 20.5846 10.2491L28.3341 2.49952C28.6446 2.18907 28.6446 1.68464 28.3341 1.37418C28.0237 1.06373 27.5193 1.06373 27.2088 1.37418L19.7772 8.8058L9.88096 6.33239C9.88082 6.33235 9.88067 6.33231 9.88053 6.33228C9.60566 6.26213 9.3206 6.34573 9.12418 6.54214L2.66585 13.0005C2.35539 13.3109 2.35539 13.8154 2.66585 14.1258Z" fill="#14803C" stroke="#14803C" stroke-width="0.3"/>
</svg>
