<svg width="100" height="104" viewBox="0 0 100 104" fill="none" xmlns="http://www.w3.org/2000/svg">
<circle opacity="0.8" cx="50" cy="54" r="50" fill="#E8EAED"/>
<path d="M41.0712 18.0231C41.5393 23.7128 43.8796 24.6609 45.284 26.0833C46.4075 27.2213 44.8158 29.7185 43.8796 30.8248C43.4115 30.8248 42.6621 31.3939 43.4111 33.6698C44.3474 36.5146 51.8374 38.8854 53.2417 38.4112C54.3652 38.0319 55.8945 32.2475 56.5186 28.9285C55.5824 28.9285 54.2289 26.2102 54.5778 25.8568C58.8618 21.5176 57.5766 18.0463 58.005 18.0463C60.6435 18.0463 61.4323 11.1036 58.4334 12.4054C57.8317 9.69212 56.5463 5.72347 55.5824 4.74687C53.2423 2.37616 50.4333 1.42783 45.7516 3.79834C41.38 6.0118 40.603 12.3333 41.0712 18.0231Z" fill="white" stroke="#00004B"/>
<path d="M42.5827 18.0463C44.127 17.7141 45.1036 18.0147 46.3666 18.7459C46.0249 19.3554 44.4287 20.4033 43.4284 20.5266C42.428 20.6499 40.9503 20.2174 40.0416 19.7621C39.584 19.7822 41.541 18.2704 42.5827 18.0463Z" fill="#00004B" stroke="#00004B"/>
<path d="M50.294 20.6502C48.152 20.216 47.5452 19.263 46.7754 18.7474C47.2759 18.2634 48.878 17.7597 50.2943 18.0466C52.4363 18.4805 52.8645 18.9142 54.1498 19.7821C53.2929 20.216 52.4361 21.0845 50.294 20.6502Z" fill="#00004B" stroke="#00004B"/>
<path d="M77.2821 33.209C76.055 33.2094 75.6554 35.9554 76.1972 37.6038H78.3665C78.909 35.9554 78.9093 33.2084 77.2821 33.209Z" fill="white" stroke="#00004B"/>
<path d="M31.016 41.0439C34.6573 33.6673 40.0406 30.6299 43.4398 30.6299C44.1629 32.0946 47.1568 35.5663 49.0293 35.5663C51.838 35.5663 56.5193 30.0653 56.5193 28.9281C57.4231 28.745 59.5371 28.8028 61.6686 29.4025C70.0949 31.7732 74.3706 38.3271 77.7122 44.0813C77.7122 44.6304 76.0314 43.9384 71.2861 46.6848C67.4899 48.882 66.0002 52.1714 66.0002 52.1714C66.0002 52.1714 64.3782 51.0031 63.2985 48.1693C63.3571 48.3578 63.4241 48.5741 63.5002 48.8213C64.5176 52.1243 67.5766 53.9467 68.0654 60.5382C68.2709 63.3097 67.1695 81.8859 65.0002 89.576L35.5265 88.1379C34.6227 87.2224 35.4341 83.6999 35.0002 69.1986C34.4415 50.5227 42.0343 39.8003 41.492 39.8003C40.1905 39.8003 35.8881 51.1523 33.8996 56.8283H27.1604C27.1604 54.0614 29.0883 44.9491 31.016 41.0439Z" fill="#E8EAED" stroke="#00004B"/>
<mask id="mask0" mask-type="alpha" maskUnits="userSpaceOnUse" x="0" y="4" width="100" height="100">
<circle cx="50" cy="54" r="50" fill="#E8EAED"/>
</mask>
<g mask="url(#mask0)">
<path d="M62.4997 44.2364C62.4997 39.3052 61.8228 33.67 62.603 29.8768C62.603 29.8768 61.1987 28.9285 60.2624 28.9285H58.3899C58.0778 30.9831 57.5913 34.7299 57.4537 35.5666C56.9855 38.4114 56.8295 43.3109 56.5174 47.4202C55.1131 47.8944 41.6252 47.29 41.7248 46.6847C42.1532 44.0812 43.4384 34.5351 43.8668 30.6298L40.4395 31.4976C40.4395 32.604 40.6012 34.5351 39.6649 38.4114C38.1519 44.6758 33.9997 52.0736 33.9997 55.9533V74.293C33.9997 77.1378 34.1345 89.9535 33.1108 93.4125C31.7075 98.154 30.5862 116.545 31.707 116.979C37.0127 118.715 40.0115 119.149 45.5808 119.149L52.4349 118.715C58.4326 118.281 66.5723 115.244 67.7522 114.376C68.9322 113.508 69.7418 101.473 67.7522 93.4125C67.0032 90.378 67.8508 79.57 68.9997 71.2364L65.4997 52.3873C63.9997 50.3496 62.4997 49.1675 62.4997 44.2364Z" fill="#00004B" stroke="#00004B"/>
</g>
<path d="M80.5368 64.5186C80.1361 59.2427 78.0077 49.1385 76.7423 44.7441C75.6576 44.7441 74.3913 44.7449 70.7768 46.9419C68.0652 48.5901 66 51.878 66 51.878C67.7832 57.0339 68.5 73.7836 73.4867 77.1523C79.5327 81.2365 81.0791 71.6593 80.5368 64.5186Z" fill="white" stroke="#00004B"/>
<path d="M71.8598 59.5752C69.6903 68.9129 71.0462 73.3073 73.4859 76.603C76.198 80.2668 78.4501 77.7969 80.5365 73.5708C82.706 69.1765 82.1634 60.3878 80.5365 55.4442C80.153 54.2789 80.5365 49.688 80.5365 48.5894C80.5365 47.4908 82.1634 41.4482 81.0788 39.251C79.9942 37.0539 75.3902 36.5043 74.3056 39.2508C73.221 41.9972 73.6151 45.1483 75.2418 47.8947C76.0788 49.3078 73.0383 54.5026 71.8598 59.5752Z" fill="white" stroke="#00004B"/>
<path d="M74.7751 46.4719C76.6476 47.4202 77.5839 45.9978 77.5839 45.9978" stroke="#00004B" stroke-linecap="round"/>
<path d="M75.2429 47.8944C75.711 48.3685 78.0517 50.7393 80.8604 45.9978" stroke="#00004B" stroke-linecap="round"/>
<path d="M73.8396 43.627C75.244 44.5753 77.1165 43.627 77.5846 43.1528" stroke="#00004B" stroke-linecap="round"/>
<path d="M74.3083 40.7818C75.7127 41.7301 77.5852 40.3076 77.5852 40.3076" stroke="#00004B" stroke-linecap="round"/>
<path d="M57.1491 15.4429C56.5432 15.4429 58.0059 12.8394 55.4357 11.9716C53.722 12.4055 52.8652 12.8394 50.7232 11.9715C49.8338 11.6112 47.7244 11.5376 46.439 11.9716C45.3021 12.3554 44.7255 11.5376 43.4401 11.5376C42.5835 11.5376 41.2981 12.4056 41.2981 11.9716C41.2981 11.5376 40.1227 10.9223 42.1548 10.2363C44.7249 9.36854 51.1516 8.50046 53.722 9.80207C54.0286 9.9573 57.5777 10.6698 58.4343 11.9716C58.2915 12.8394 58.2227 13.7021 58.0059 14.1412C57.5775 15.009 57.5775 15.4429 57.1491 15.4429Z" fill="#00004B"/>
<ellipse rx="3.03463" ry="3.03136" transform="matrix(0.617752 0.786373 -0.774977 0.63199 20.0535 44.2394)" fill="#73DC78"/>
<rect width="12.1388" height="2.01477" transform="matrix(0.616641 0.787244 -0.775875 0.630886 13.3445 34.0479)" fill="#73DC78"/>
<rect width="1.01157" height="2.01477" transform="matrix(0.616641 0.787245 -0.775875 0.630887 12.5632 34.6843)" fill="#73DC78"/>
<rect width="1.01157" height="2.01477" transform="matrix(0.616641 0.787245 -0.775875 0.630887 13.8093 36.2761)" fill="#73DC78"/>
<path d="M32.9988 69.1987C33.9988 64.6138 34.4988 61.5572 33.9988 56.8264H28.0175C27.4751 60.1237 28.2091 65.7508 26.4988 63.595C25.4246 62.2409 20.3414 55.1803 19.7991 54.0815C19.3652 53.2025 21.0486 52.1228 21.591 51.0242C22.1333 49.9256 22.0238 46.9996 19.7991 45.2554C18.4995 44.2365 17.4995 43.727 15.4995 43.7271C13.4995 44.2365 13.2596 45.7044 13 47.2931C12.5005 50.3497 14.9988 52.3874 15.5005 54.4252C15.894 56.0235 17.6304 64.5165 23.0535 71.108C28.4767 77.6995 32.1882 72.9154 32.9988 69.1987Z" fill="white" stroke="#00004B"/>
<path d="M41.5751 9.77588L41.7664 8.55768C42.0238 7.47698 42.6768 5.67761 43.6722 4.06264C44.6852 2.4191 45.9801 1.08382 47.4699 0.753708C49.4967 0.304608 51.0156 0.511454 52.1988 0.91117C53.0799 1.20881 53.759 1.60149 54.3723 1.95616C54.6067 2.09171 54.8315 2.22172 55.0544 2.33874C57.6158 3.68397 58.2045 6.29645 58.4198 8.28653C58.5482 9.47263 58.4998 10.6406 58.4313 11.3736C57.2372 11.0704 55.5912 10.6751 53.9815 10.3344C52.1224 9.94076 50.2578 9.60776 49.2078 9.59143C48.4506 9.57966 47.34 9.63369 46.174 9.69042C45.7797 9.7096 45.379 9.72909 44.9835 9.74646C43.6684 9.80419 42.4245 9.83739 41.5751 9.77588Z" fill="#73DC78" stroke="#00004B"/>
<path d="M42.6079 8.68177C40.1686 8.83718 37.4385 9.57023 34.3714 10.9784C33.7574 11.2597 34.2256 11.5117 35.0573 11.9594C35.5223 12.2097 36.6927 12.2278 38.1064 11.7651C39.5201 11.3024 41.642 10.6091 46.0643 12.3776C48.0195 13.1594 49.2505 13.6423 50.7317 13.6661C53.0749 13.7037 54.7288 12.7585 57.0895 11.5819C56.6246 11.3317 56.1597 11.0814 54.0619 10.5641L54.0421 10.5592C52.3952 10.1531 45.6447 8.48829 42.6079 8.68177Z" fill="#73DC78" stroke="#00004B"/>
<path d="M19.5793 48.7291L20.5962 47.2481" stroke="#00004B" stroke-width="0.8" stroke-linecap="round"/>
<path d="M18.0832 46.8306L19.1001 45.3497" stroke="#00004B" stroke-width="0.8" stroke-linecap="round"/>
<path d="M16.0832 45.8306L17.1001 44.3497" stroke="#00004B" stroke-width="0.8" stroke-linecap="round"/>
</svg>
