<svg width="12" height="11" viewBox="0 0 12 11" fill="none" xmlns="http://www.w3.org/2000/svg">
<path d="M10.82 5.42C11.0709 5.77576 11.0628 6.25295 10.8 6.6L7.8 10.6C7.61115 10.8518 7.31476 11 7 11C6.78363 11 6.5731 10.9298 6.4 10.8C6.18783 10.6409 6.04756 10.404 6.01005 10.1414C5.97254 9.87887 6.04087 9.61217 6.2 9.4L8 7H1C0.447715 7 0 6.55228 0 6C0 5.44771 0.447715 5 1 5H8.09L6.37 2.58C6.21501 2.36291 6.15317 2.09289 6.19824 1.82998C6.24331 1.56708 6.39155 1.33307 6.61 1.18C7.06045 0.863931 7.68162 0.971183 8 1.42L10.82 5.42Z" fill="#696F88"/>
</svg>
