<svg width="17" height="16" viewBox="0 0 17 16" fill="none" xmlns="http://www.w3.org/2000/svg">
<path d="M15.82 7.42C16.0709 7.77576 16.0628 8.25295 15.8 8.6L12.8 12.6C12.6111 12.8518 12.3148 13 12 13C11.7836 13 11.5731 12.9298 11.4 12.8C11.1878 12.6409 11.0476 12.404 11.0101 12.1414C10.9725 11.8789 11.0409 11.6122 11.2 11.4L13 9H6C5.44772 9 5 8.55228 5 8C5 7.44771 5.44772 7 6 7H13.09L11.37 4.58C11.215 4.36291 11.1532 4.09289 11.1982 3.82998C11.2433 3.56708 11.3916 3.33307 11.61 3.18C12.0604 2.86393 12.6816 2.97118 13 3.42L15.82 7.42Z" fill="#696F88"/>
<path fill-rule="evenodd" clip-rule="evenodd" d="M3 2C2.44772 2 2 2.44772 2 3V13C2 13.5523 2.44772 14 3 14H7C7.55228 14 8 14.4477 8 15C8 15.5523 7.55228 16 7 16H3C1.34315 16 0 14.6569 0 13V3C0 1.34315 1.34315 0 3 0H7C7.55228 0 8 0.447715 8 1C8 1.55228 7.55228 2 7 2H3Z" fill="#696F88"/>
</svg>
