<svg width="191" height="46" xmlns="http://www.w3.org/2000/svg">

 <g>
  <title>background</title>
  <rect fill="none" id="canvas_background" height="402" width="582" y="-1" x="-1"/>
 </g>
 <g>
  <title>Layer 1</title>
  <path id="svg_1" fill="#97CA43" d="m38.7024,10.9668c-0.6788,-0.9025 -1.3763,-1.79587 -2.1017,-2.68921c-12.9825,4.09831 -27.18326,13.05011 -35.26476,22.15861c0.98577,0.6538 1.95295,1.3077 2.90153,1.98c7.84903,-8.8413 21.78933,-17.5537 34.46493,-21.4494z"/>
  <path id="svg_2" stroke-linejoin="round" stroke-linecap="round" stroke-miterlimit="10" stroke-width="0.7275" stroke="#97CA43" d="m38.7024,10.9668c-0.6788,-0.9025 -1.3763,-1.79587 -2.1017,-2.68921c-12.9825,4.09831 -27.18326,13.05011 -35.26476,22.15861c0.98577,0.6538 1.95295,1.3077 2.90153,1.98c7.84903,-8.8413 21.78933,-17.5537 34.46493,-21.4494z"/>
  <path id="svg_3" fill="#97CA43" d="m53.1073,20.6738c-4.529,0.525 -10.2298,2.5235 -14.3403,3.8957c-6.8818,2.7169 -12.9732,6.5481 -17.9858,11.1622c0.6045,0.6815 1.1904,1.363 1.7577,2.0445c7.9978,-6.8059 19.8922,-11.6594 31.8145,-13.1606c-0.4092,-0.9855 -0.7904,-2.9379 -1.2461,-3.9418z"/>
  <path id="svg_4" stroke-linejoin="round" stroke-linecap="round" stroke-miterlimit="10" stroke-width="0.7275" stroke="#97CA43" d="m53.1073,20.6738c-4.529,0.525 -10.2298,2.5235 -14.3403,3.8957c-6.8818,2.7169 -12.9732,6.5481 -17.9858,11.1622c0.6045,0.6815 1.1904,1.363 1.7577,2.0445c7.9978,-6.8059 19.8922,-11.6594 31.8145,-13.1606c-0.4092,-0.9855 -0.7904,-2.9379 -1.2461,-3.9418z"/>
  <path id="svg_5" fill="#97CA43" d="m36.1634,23.4551c0.9858,-1.4736 2.0367,-2.9195 3.134,-4.3194c-7.0864,2.1367 -13.5498,5.3509 -19.1296,9.3663c-0.5766,1.7314 -1.0881,3.4905 -1.5345,5.268c5.0033,-4.2457 10.9273,-7.7822 17.5301,-10.3149z"/>
  <path id="svg_6" stroke-linejoin="round" stroke-linecap="round" stroke-miterlimit="10" stroke-width="0.7275" stroke="#97CA43" d="m36.1634,23.4551c0.9858,-1.4736 2.0367,-2.9195 3.134,-4.3194c-7.0864,2.1367 -13.5498,5.3509 -19.1296,9.3663c-0.5766,1.7314 -1.0881,3.4905 -1.5345,5.268c5.0033,-4.2457 10.9273,-7.7822 17.5301,-10.3149z"/>
  <path id="svg_7" fill="#97CA43" d="m56.3167,29.3033c-0.3161,-0.9025 -1.0043,-2.2656 -1.3577,-3.1773c-11.7642,1.4367 -23.5099,6.2257 -31.3682,12.9396c0.6231,0.792 1.2369,1.5749 1.8135,2.3761c7.6165,-6.5757 19.4365,-10.7938 30.9124,-12.1384z"/>
  <path id="svg_8" stroke-linejoin="round" stroke-linecap="round" stroke-miterlimit="10" stroke-width="0.7275" stroke="#97CA43" d="m56.3167,29.3033c-0.3161,-0.9025 -1.0043,-2.2656 -1.3577,-3.1773c-11.7642,1.4367 -23.5099,6.2257 -31.3682,12.9396c0.6231,0.792 1.2369,1.5749 1.8135,2.3761c7.6165,-6.5757 19.4365,-10.7938 30.9124,-12.1384z"/>
  <path id="svg_9" fill="#398640" d="m52.3637,29.6994c-1.3485,4.8811 -4.7243,9.2373 -9.1696,12.0186c-2.2319,1.3907 -4.7243,2.3761 -7.3189,2.9379c-2.6039,0.5618 -5.3009,0.6079 -7.9513,0.3132c-5.3195,-0.5987 -10.4716,-3.1682 -14.0985,-7.202c-3.6641,-4.0155 -5.60775,-9.44 -5.64495,-14.8092c-0.0279,-5.4061 2.04595,-10.7938 5.67285,-14.80005c3.6176,-4.00623 8.6767,-6.69547 13.9962,-7.38619c5.3102,-0.7552 10.8342,0.39601 15.2888,3.18656c4.4546,2.76291 7.8397,7.11908 9.2068,12.00028c-2.018,-4.6325 -5.5985,-8.44533 -9.9694,-10.6925c-4.3429,-2.29322 -9.4113,-2.98395 -14.1449,-2.11824c-4.715,0.88413 -9.1138,3.3155 -12.1641,6.93494c-1.5345,1.7867 -2.7714,3.822 -3.5897,6.0139c-0.8184,2.1919 -1.209,4.522 -1.1997,6.8613c-0.0186,4.6877 1.646,9.3662 4.7522,12.9028c1.5251,1.7866 3.3944,3.2878 5.4775,4.4298c2.0925,1.1236 4.3802,1.9064 6.761,2.3117c4.7708,0.8012 9.8112,0.1381 14.1542,-2.1827c4.3616,-2.2564 7.9421,-6.0784 9.9415,-10.7201z"/>
  <path id="svg_10" fill="#ffffff" d="m147.548,28.6128c0,2.8734 0,5.7192 0,8.5834c-1.758,0 -3.506,0 -5.264,0c0,-8.1874 0,-16.3748 0,-24.5899c0.056,0 0.121,0 0.186,0c4.343,0 8.677,-0.0092 13.02,0.0092c1.209,0 2.418,0.0645 3.608,0.3408c1.2,0.2671 2.176,0.8841 3.004,1.7682c1.163,1.2433 1.944,2.6801 2.204,4.3562c0.437,2.7998 -0.158,5.3417 -2.102,7.4875c-0.995,1.0868 -2.26,1.7407 -3.738,1.9064c-0.791,0.0921 -1.581,0.1382 -2.381,0.1382c-2.762,0.0184 -5.533,0.0092 -8.305,0.0092c-0.065,-0.0092 -0.139,-0.0092 -0.232,-0.0092zm0.009,-4.3654c0.093,0 0.168,0 0.233,0c2.287,0 4.575,0 6.863,0c0.456,0 0.911,-0.0277 1.358,-0.0737c1.06,-0.1105 1.832,-0.6355 2.222,-1.6485c0.437,-1.1605 0.521,-2.3393 0.177,-3.5274c-0.279,-0.967 -0.893,-1.6485 -1.906,-1.8695c-0.438,-0.0921 -0.884,-0.1566 -1.33,-0.1566c-2.474,-0.0184 -4.948,-0.0092 -7.422,-0.0092c-0.065,0 -0.12,0.0092 -0.195,0.0092c0,2.4314 0,4.8443 0,7.2757z" clip-rule="evenodd" fill-rule="evenodd"/>
  <path id="svg_11" fill="#ffffff" d="m117.369,12.6063c0.075,0 0.14,0 0.205,0c4.324,0 8.639,-0.0092 12.964,0.0092c1.227,0 2.446,0.0645 3.645,0.3408c1.191,0.2763 2.167,0.8933 2.995,1.7682c1.162,1.2341 1.934,2.6709 2.195,4.3378c0.446,2.7998 -0.149,5.3416 -2.102,7.4875c-0.995,1.096 -2.269,1.7498 -3.757,1.9156c-0.772,0.0829 -1.563,0.1382 -2.344,0.1382c-2.771,0.0184 -5.543,0.0092 -8.323,0.0092c-0.075,0 -0.149,0 -0.242,0c0,2.8734 0,5.7192 0,8.5834c-1.758,0 -3.506,0 -5.254,0c0.018,-8.1874 0.018,-16.384 0.018,-24.5899zm5.264,11.6411c0.084,0 0.158,0 0.232,0c2.316,0 4.622,0 6.938,0c0.437,0 0.874,-0.0277 1.302,-0.0737c1.042,-0.1105 1.804,-0.6171 2.195,-1.6025c0.465,-1.1788 0.539,-2.3853 0.186,-3.5918c-0.251,-0.8473 -0.772,-1.492 -1.656,-1.7775c-0.511,-0.1657 -1.051,-0.221 -1.59,-0.221c-2.464,-0.0092 -4.938,-0.0092 -7.403,-0.0092c-0.065,0 -0.12,0 -0.195,0c-0.009,2.4314 -0.009,4.8443 -0.009,7.2757z" clip-rule="evenodd" fill-rule="evenodd"/>
  <path id="svg_12" fill="#ffffff" d="m166.425,24.9841c0.028,-1.9525 0.233,-3.8773 0.847,-5.7377c0.409,-1.2433 0.995,-2.3945 1.86,-3.3891c1.023,-1.1697 2.306,-1.9709 3.766,-2.5051c1.339,-0.4881 2.734,-0.746 4.157,-0.8657c1.246,-0.1013 2.492,-0.0921 3.738,0.0369c1.805,0.1934 3.534,0.617 5.143,1.4827c1.804,0.9578 3.069,2.3853 3.832,4.2733c0.539,1.3354 0.865,2.7077 1.041,4.1352c0.149,1.1604 0.205,2.33 0.158,3.5089c-0.074,2.0353 -0.427,4.0062 -1.302,5.8666c-1.181,2.5326 -3.171,4.1351 -5.849,4.9272c-1.218,0.3591 -2.465,0.5526 -3.739,0.617c-2.083,0.1013 -4.129,-0.0829 -6.128,-0.6907c-1.414,-0.4329 -2.716,-1.0683 -3.85,-2.0077c-1.349,-1.1236 -2.232,-2.5603 -2.818,-4.1812c-0.428,-1.1881 -0.67,-2.413 -0.763,-3.6747c-0.046,-0.6079 -0.065,-1.1973 -0.093,-1.7959zm5.831,-0.175c0.037,0.6447 0.056,1.2894 0.103,1.9248c0.083,1.0131 0.269,1.9985 0.641,2.9564c0.679,1.759 1.925,2.901 3.804,3.3155c1.209,0.267 2.418,0.2762 3.627,0.046c1.795,-0.3408 3.078,-1.3262 3.841,-2.9839c0.567,-1.2434 0.771,-2.5696 0.855,-3.9234c0.065,-1.0038 0.047,-2.0077 -0.037,-3.0116c-0.093,-1.0407 -0.27,-2.0629 -0.651,-3.0392c-0.632,-1.6485 -1.758,-2.7813 -3.506,-3.2418c-1.293,-0.3407 -2.604,-0.3592 -3.925,-0.1013c-0.957,0.1934 -1.832,0.5618 -2.585,1.1789c-0.902,0.7367 -1.413,1.713 -1.702,2.8089c-0.353,1.3262 -0.437,2.6893 -0.465,4.0707z" clip-rule="evenodd" fill-rule="evenodd"/>
  <path id="svg_13" fill="#ffffff" d="m95.2922,28.1432c-0.0093,-1.4919 0.2418,-2.9471 0.8928,-4.3009c1.023,-2.1459 2.7063,-3.5549 4.957,-4.3194c1.469,-0.4973 2.985,-0.6262 4.519,-0.5525c1.219,0.0644 2.409,0.2578 3.544,0.6999c1.72,0.6539 2.985,1.8419 3.915,3.3892c0.753,1.2525 1.162,2.6247 1.293,4.0707c0.13,1.3446 0.074,2.68 -0.279,3.9878c-0.772,2.8918 -2.623,4.7982 -5.478,5.7468c-1.516,0.5066 -3.078,0.6355 -4.668,0.5526c-1.172,-0.0553 -2.316,-0.2579 -3.413,-0.6631c-2.5765,-0.9762 -4.1668,-2.8182 -4.8922,-5.4245c-0.279,-1.0407 -0.3906,-2.109 -0.3906,-3.1866zm5.0868,0.0921c0,0.8657 0.075,1.7315 0.344,2.5603c0.4,1.2618 1.172,2.1919 2.483,2.6248c0.707,0.2302 1.433,0.2763 2.177,0.2302c1.664,-0.1105 2.91,-0.8933 3.524,-2.505c0.279,-0.7368 0.4,-1.5012 0.447,-2.2932c0.055,-1.142 0,-2.284 -0.382,-3.38c-0.428,-1.2341 -1.227,-2.109 -2.511,-2.505c-0.79,-0.2395 -1.599,-0.2671 -2.408,-0.1566c-1.516,0.1934 -2.586,0.967 -3.162,2.3853c-0.409,0.9763 -0.512,1.9985 -0.512,3.0392z" clip-rule="evenodd" fill-rule="evenodd"/>
  <path id="svg_14" fill="#ffffff" d="m89.7122,24.7456c0.186,0.129 0.3813,0.2579 0.5673,0.396c1.3485,0.9947 2.2598,2.2656 2.5946,3.9142c0.2883,1.4367 0.2418,2.8642 -0.3255,4.2364c-0.7812,1.888 -2.2598,2.984 -4.1942,3.5274c-1.0136,0.2855 -2.0738,0.3591 -3.1247,0.3591c-3.8966,0.0185 -7.7932,0.0277 -11.6898,0.0369c-0.0465,0 -0.093,0 -0.1488,-0.0092c0,-1.446 0,-2.8919 0,-4.3562c0.0744,0 0.1488,0 0.2232,0c3.2177,0 6.4447,0 9.6625,0c0.6323,0 1.2647,-0.0369 1.8878,-0.175c1.3299,-0.2947 1.9902,-1.0683 2.0553,-2.4222c0.0279,-0.5525 -0.0279,-1.1051 -0.2232,-1.6209c-0.3441,-0.8841 -1.0044,-1.3998 -1.9437,-1.538c-0.6045,-0.0829 -1.2089,-0.1381 -1.8134,-0.1474c-3.2085,-0.0184 -6.4169,-0.0092 -9.6253,-0.0092c-0.0744,0 -0.1395,0 -0.2232,0c0,-1.4459 0,-2.8734 0,-4.3285c0.0837,0 0.1581,0 0.2325,0c3.3107,0 6.6214,0.0092 9.9322,-0.0092c0.5672,0 1.1438,-0.0553 1.7111,-0.1382c0.9579,-0.1381 1.5531,-0.6999 1.7949,-1.6301c0.2325,-0.9025 0.2046,-1.7867 -0.2697,-2.6156c-0.4092,-0.7275 -1.0509,-1.1328 -1.8879,-1.2248c-0.4464,-0.0461 -0.9021,-0.0737 -1.3577,-0.0737c-3.3015,0 -6.6122,0 -9.9136,0c-0.0744,0 -0.1581,0 -0.2418,0c0,-1.4459 0,-2.8735 0,-4.3286c0.0651,0 0.1302,0 0.186,0c3.9338,0 7.8676,-0.0092 11.8014,0c0.9486,0 1.9065,0.0184 2.8271,0.2579c1.7019,0.4513 2.9667,1.4735 3.8222,2.9747c1.023,1.7683 1.2741,3.6471 0.6417,5.6087c-0.3534,1.096 -1.0694,1.9433 -1.9901,2.6248c-0.3069,0.2579 -0.6324,0.4697 -0.9672,0.6907z" clip-rule="evenodd" fill-rule="evenodd"/>
 </g>
</svg>