<svg width="114" height="50" viewBox="0 0 114 50" fill="none" xmlns="http://www.w3.org/2000/svg">
<g clip-path="url(#clip0)">
<path d="M44.1849 25.4348C43.9701 25.3095 43.8269 25.22 43.6837 25.1305C42.0908 24.2891 42.0013 22.1409 42.6635 21.1026C43.1289 20.3865 43.7195 19.8495 44.4175 19.384C44.5428 19.3124 44.6502 19.2229 44.7755 19.1513C44.7397 19.0976 44.7218 19.0439 44.7039 19.026C43.3078 18.292 42.9499 17.0389 43.0394 15.5889C43.1289 13.6376 44.328 12.5456 46.0463 11.9549C48.2299 11.203 50.4492 11.203 52.6507 11.8833C54.6732 12.5277 55.3713 14.0852 55.246 15.9111C55.1028 18.0593 53.832 19.4019 51.5052 19.9748C50.2166 20.297 48.9279 20.3865 47.6034 20.1717C47.0486 20.0822 46.3505 20.5118 46.1716 21.0668C46.0463 21.4785 46.2253 21.9619 46.6906 22.1588C47.156 22.3378 47.675 22.4631 48.1762 22.481C49.4111 22.5347 50.664 22.4452 51.899 22.5168C52.6686 22.5705 53.4741 22.7137 54.1721 23.0002C55.765 23.6446 56.4094 24.9873 56.4989 26.6342C56.6241 29.1225 55.3713 30.7695 53.2056 31.8078C51.4158 32.6671 49.5006 32.864 47.5318 32.7208C46.3506 32.6313 45.1872 32.4343 44.1133 31.8973C42.5919 31.1454 41.8044 29.6596 42.0729 28.0663C42.2518 27.0459 42.9499 26.3657 43.7374 25.7749C43.8448 25.6854 43.988 25.578 44.1849 25.4348ZM48.8742 29.5701C49.8765 29.588 50.8072 29.3911 51.5947 28.7466C52.2391 28.2095 52.5075 27.2966 52.2391 26.5805C52.0064 25.936 51.3979 25.5959 50.4671 25.5959C50.3777 25.5959 50.2882 25.5959 50.2166 25.5959C49.3217 25.5959 48.4088 25.6496 47.5139 25.578C46.8338 25.5422 46.3684 25.8107 45.9568 26.2762C45.0261 27.2787 45.2051 28.3707 46.4042 29.033C47.1739 29.4448 47.9972 29.588 48.8742 29.5701ZM51.201 15.8753C51.201 14.6043 50.3956 13.7808 49.1606 13.7808C47.9972 13.7808 47.0486 14.7475 47.0486 15.929C47.0486 17.1463 47.8719 17.9877 49.0711 17.9877C50.3777 17.9877 51.2189 17.1642 51.201 15.8753ZM26.6088 11.8117C25.338 11.8117 24.1388 11.8117 22.9575 11.8296C22.8501 11.8296 22.6712 11.9728 22.6354 12.0802C21.5973 14.8191 20.5771 17.576 19.5569 20.3328C19.5211 20.4223 19.4853 20.5118 19.4137 20.673C19.1631 19.8316 18.9662 19.0618 18.6977 18.3278C17.9639 16.2871 17.2122 14.2642 16.4783 12.2234C16.371 11.9012 16.192 11.8117 15.8877 11.8296C14.7064 11.8475 13.5251 11.8296 12.326 11.8475C12.1828 11.8475 12.0575 11.8654 11.8606 11.8654C11.9501 12.116 12.0396 12.3129 12.1112 12.5098C13.722 16.663 15.3329 20.8162 16.9437 24.9873C17.0153 25.1484 17.0869 25.3632 17.0332 25.5064C16.5857 26.6163 16.1741 27.7441 15.4045 28.6929C14.7959 29.4269 14.0442 29.8565 13.0598 29.7849C12.6302 29.7491 12.2186 29.6596 11.789 29.6417C11.6637 29.6417 11.431 29.7312 11.4131 29.8207C11.2163 30.6084 11.0552 31.396 10.8583 32.2374C11.5026 32.3448 12.0933 32.4701 12.7018 32.5417C14.6169 32.7566 16.3889 32.4343 17.8923 31.0917C18.8767 30.2145 19.5211 29.1225 20.0043 27.9231C21.7762 23.573 23.5661 19.2229 25.3559 14.8728C25.7675 13.8524 26.1613 12.8679 26.6088 11.8117ZM84.8139 25.2379C84.8139 21.8724 84.8676 18.5606 84.7781 15.2488C84.7244 13.1364 83.4715 11.8117 81.4669 11.5073C79.6055 11.2209 77.9231 11.74 76.3301 12.6709C76.2048 12.7425 76.0975 12.8141 75.9006 12.9037C75.9006 12.4919 75.9006 12.1518 75.9006 11.7938C75.7932 11.7759 75.7216 11.74 75.65 11.74C74.4866 11.74 73.3053 11.74 72.1419 11.74C71.8556 11.74 71.8377 11.9012 71.8377 12.116C71.8377 16.3587 71.8556 20.6193 71.8377 24.8619C71.8377 25.1663 71.9451 25.2558 72.2314 25.2558C73.3769 25.2379 74.5224 25.2558 75.65 25.2379C75.7574 25.2379 75.8648 25.2021 75.9901 25.1842C75.9901 24.9873 75.9901 24.8082 75.9901 24.6471C75.9901 21.8008 75.9901 18.9723 75.9901 16.1259C75.9901 15.9469 76.0259 15.6963 76.1511 15.5889C76.9208 14.9086 77.7799 14.4611 78.8538 14.5327C79.9277 14.6043 80.5362 15.1414 80.6257 16.2334C80.6436 16.4124 80.6436 16.6093 80.6436 16.7883C80.6436 19.4199 80.6436 22.0693 80.6436 24.7008C80.6436 24.8619 80.6436 25.0231 80.6436 25.2021C82.0934 25.2379 83.4357 25.2379 84.8139 25.2379ZM40.4978 25.2916C40.4978 24.9694 40.4978 24.6829 40.4978 24.4144C40.4978 21.3532 40.5157 18.2741 40.462 15.213C40.4262 13.2975 39.1375 11.8833 37.2403 11.5789C35.4147 11.2925 33.7323 11.7759 32.1572 12.6709C31.9961 12.7604 31.8351 12.8679 31.5845 13.0111C31.5845 12.6888 31.5666 12.474 31.5845 12.2413C31.6203 11.8833 31.4592 11.8117 31.137 11.8117C30.1168 11.8296 29.1145 11.8296 28.0943 11.8117C27.6827 11.7938 27.5395 11.9012 27.5395 12.3487C27.5574 16.5019 27.5574 20.6551 27.5574 24.8082C27.5574 24.9694 27.5574 25.1126 27.5574 25.3095C27.7543 25.3274 27.8974 25.3274 28.0585 25.3274C29.0966 25.3274 30.1347 25.3095 31.1907 25.3274C31.6203 25.3453 31.7456 25.2379 31.7456 24.7903C31.7277 21.9261 31.7277 19.0618 31.7277 16.1797C31.7277 16.0006 31.7456 15.7679 31.853 15.6784C32.6942 14.9265 33.6428 14.479 34.8241 14.6222C35.7011 14.7475 36.238 15.2667 36.3096 16.1618C36.3275 16.4661 36.3454 16.7525 36.3454 17.0568C36.3454 19.5989 36.3454 22.1409 36.3633 24.6829C36.3633 25.2916 36.3633 25.2916 36.954 25.2916C37.9742 25.2916 38.9765 25.2916 39.9967 25.2916C40.1398 25.3095 40.3009 25.2916 40.4978 25.2916ZM68.3296 21.6038C68.6697 22.3736 69.0276 23.1613 69.4214 24.0385C68.795 24.307 68.2043 24.6113 67.5779 24.8261C65.5733 25.5243 63.5329 25.8286 61.4388 25.3453C58.754 24.7187 57.2327 22.9644 56.7136 20.3149C56.3557 18.5248 56.481 16.7525 57.3759 15.1235C58.6467 12.832 60.6513 11.6505 63.2465 11.5073C64.1772 11.4536 65.1616 11.561 66.0744 11.7938C67.8821 12.2413 69.0276 13.4407 69.5825 15.213C70.012 16.5735 69.9762 17.9698 69.9225 19.4198C66.9335 19.4198 63.9624 19.4198 60.9913 19.4198C60.8123 20.8878 61.7252 22.0872 63.2286 22.4452C64.8931 22.8212 66.4503 22.5526 67.9537 21.8008C68.0611 21.7471 68.1506 21.6934 68.258 21.6396C68.258 21.6217 68.2759 21.6218 68.3296 21.6038ZM60.9913 16.6451C61.0629 16.6988 61.0808 16.7167 61.0987 16.7167C62.5485 16.7167 63.9982 16.7346 65.448 16.7167C65.5196 16.7167 65.6449 16.5735 65.6628 16.484C65.6807 15.8216 65.5375 15.1951 65.0005 14.7475C64.2309 14.121 63.3539 14.0673 62.4769 14.4611C61.5641 14.9086 61.1524 15.7142 60.9913 16.6451ZM105.182 24.1638C104.341 24.8261 103.518 25.22 102.587 25.399C101.495 25.5959 100.403 25.578 99.3473 25.2021C97.9691 24.7187 97.1637 23.6267 97.11 22.1767C96.9847 19.5273 98.2376 17.755 100.851 17.1105C102.05 16.8062 103.321 16.7525 104.556 16.5735C104.699 16.5556 104.86 16.5556 105.003 16.5377C105.236 15.2488 104.591 14.4253 103.339 14.2821C102.104 14.1389 100.958 14.4432 99.8484 14.9265C99.4726 15.0877 99.1146 15.2846 98.7029 15.4815C98.3629 14.6759 98.0407 13.8882 97.7007 13.0648C98.8282 12.4203 99.9916 11.9907 101.227 11.7042C102.766 11.3462 104.323 11.2388 105.88 11.6505C107.903 12.1697 109.048 13.5302 109.066 15.5889C109.102 18.668 109.084 21.7471 109.084 24.844C109.084 25.1484 108.977 25.2379 108.69 25.2379C107.652 25.22 106.614 25.22 105.558 25.2379C105.218 25.2379 105.128 25.1126 105.164 24.8082C105.182 24.6471 105.182 24.4681 105.182 24.1638ZM105.057 20.4581C105.057 20.2433 105.057 20.0285 105.057 19.8137C105.039 19.0439 105.2 19.0797 104.305 19.1155C103.518 19.1334 102.73 19.1871 102.032 19.5989C101.388 19.9927 101.101 20.7088 101.262 21.5322C101.37 22.123 101.835 22.5168 102.551 22.66C103.231 22.8033 103.84 22.6063 104.412 22.2304C104.86 21.944 105.164 21.5859 105.057 20.9952C105.039 20.8341 105.057 20.6372 105.057 20.4581ZM0.244629 24.5039C0.44151 24.5755 0.584697 24.6292 0.727883 24.6829C2.5893 25.3811 4.50442 25.6317 6.47322 25.5243C7.52922 25.4706 8.53152 25.2021 9.46223 24.7187C11.1626 23.8057 11.9501 22.2483 11.7174 20.2612C11.5205 18.5427 10.4824 17.4149 8.63891 16.8957C8.42414 16.842 8.19146 16.7883 7.97668 16.7346C7.22495 16.5556 6.47322 16.4124 5.73939 16.2155C5.14875 16.0543 4.80868 15.6605 4.80868 15.1772C4.80868 14.7117 5.13085 14.2821 5.73939 14.1568C6.24055 14.0494 6.75959 13.9778 7.26075 14.0315C8.13776 14.121 8.99688 14.3179 9.90969 14.4969C10.2319 13.6913 10.5719 12.8141 10.912 11.937C10.8404 11.9012 10.7867 11.8654 10.733 11.8475C8.67471 11.3104 6.58061 11.0419 4.46862 11.4715C2.19554 11.937 0.387816 13.4944 0.638391 16.3229C0.745781 17.4686 1.17534 18.4532 2.21344 19.0081C2.87567 19.3661 3.6274 19.581 4.36123 19.7958C5.18455 20.0464 6.02577 20.1717 6.84909 20.4223C7.51132 20.6193 7.7619 21.1563 7.56502 21.765C7.42183 22.2125 7.06387 22.4452 6.63431 22.5705C5.79309 22.8033 4.93397 22.8033 4.09275 22.6063C3.19784 22.4094 2.30293 22.1409 1.37222 21.8903C0.978458 22.7317 0.620492 23.5909 0.244629 24.5039ZM92.4565 11.74C92.4565 10.3258 92.4565 8.9653 92.4565 7.56897C91.1857 7.927 89.9686 8.28504 88.7515 8.60726C88.4115 8.69677 88.2683 8.82208 88.2862 9.21592C88.322 10.0394 88.3041 10.8629 88.3041 11.758C87.5702 11.758 86.8722 11.758 86.1921 11.758C86.1921 12.6709 86.1921 13.5302 86.1921 14.4253C86.908 14.4253 87.606 14.4253 88.3041 14.4253C88.3041 14.6401 88.3041 14.8012 88.3041 14.9444C88.3041 17.1642 88.3041 19.3661 88.322 21.5859C88.3399 23.4835 89.1453 24.6471 90.8635 25.22C92.5638 25.7749 94.2821 25.5064 95.9824 25.2558C96.054 25.2379 96.1614 25.0947 96.1435 25.0231C96.0719 24.2175 95.9824 23.4119 95.9108 22.5705C95.5887 22.6063 95.3202 22.6421 95.0517 22.66C93.2261 22.7854 92.4743 22.1946 92.4743 20.4223C92.4743 18.5964 92.4743 16.7704 92.4743 14.9444C92.4743 14.7833 92.4743 14.6401 92.4743 14.4253C93.7272 14.4253 94.9264 14.4253 96.1614 14.4253C96.1614 13.6018 96.1614 12.832 96.1614 12.0623C96.1614 11.7759 95.9824 11.7759 95.7855 11.7759C95.0517 11.7759 94.3 11.7759 93.5661 11.7759C93.1903 11.74 92.8502 11.74 92.4565 11.74ZM58.1097 39.4339C58.1097 36.0147 60.4007 33.8486 63.0854 33.8486C64.4278 33.8486 65.3406 34.2066 66.4145 35.0122V28.8182H67.4526C67.4526 28.8182 67.4526 44.4463 67.4526 44.5537C67.4526 44.6432 67.3989 44.7149 67.3094 44.7149C67.2378 44.7149 66.7904 44.7149 66.5577 44.7149C66.4682 44.7149 66.4145 44.679 66.4145 44.5716C66.4145 44.4642 66.4145 43.7661 66.4145 43.7661C65.6449 44.4463 64.2488 44.9834 62.7632 44.9834C59.9353 44.9834 58.1097 43.0142 58.1097 39.4339ZM66.3966 42.3697C66.3966 42.2444 66.3966 37.8764 66.3966 36.4801C66.3966 36.1221 66.3429 36.0147 66.1102 35.8535C65.09 35.048 64.1056 34.7078 63.1212 34.7078C60.9018 34.7078 59.1836 36.7665 59.1836 39.416C59.1836 42.2444 60.5081 44.1062 62.8885 44.1062C64.0519 44.1062 65.3585 43.6766 66.1818 42.7994C66.3429 42.6383 66.3966 42.5309 66.3966 42.3697ZM70.2447 30.68C70.2447 30.125 70.6743 29.8207 71.1754 29.8207C71.6766 29.8207 72.1061 30.1429 72.1061 30.68C72.1061 31.1812 71.6766 31.5393 71.1754 31.5393C70.6743 31.5393 70.2447 31.1812 70.2447 30.68ZM70.6385 34.0992H71.6766V44.6969H70.6385V34.0992ZM86.0489 30.68C86.0489 30.125 86.4784 29.8207 86.9796 29.8207C87.4807 29.8207 87.9103 30.1429 87.9103 30.68C87.9103 31.1812 87.4807 31.5393 86.9796 31.5393C86.4784 31.5393 86.0489 31.1812 86.0489 30.68ZM86.4426 34.0992H87.4807V44.6969H86.4426V34.0992ZM91.2931 41.779V34.9585H89.539V34.0992H91.2931C91.2931 34.0992 91.2931 31.6109 91.2931 31.5572C91.2931 31.5034 91.311 31.4676 91.3647 31.4676C91.4005 31.4497 92.3312 31.1812 92.3312 31.1812V34.0992C92.3312 34.0992 95.3739 34.0992 95.4455 34.0992C95.535 34.0992 95.5887 34.135 95.5887 34.2245C95.5887 34.314 95.5887 34.9585 95.5887 34.9585H92.3491V41.8506C92.3491 43.2111 92.707 44.1241 94.2463 44.1241C94.658 44.1241 95.177 44.0167 95.6602 43.8377C95.6602 43.8377 95.696 44.3747 95.7139 44.4821C95.7318 44.6074 95.6781 44.679 95.535 44.7149C95.0517 44.876 94.4611 44.9655 94.0852 44.9655C91.9195 44.9834 91.2931 43.6766 91.2931 41.779ZM96.6983 42.0654C96.6983 39.7024 98.4882 38.2703 103.929 38.0733C103.929 36.319 103.446 34.7973 101.28 34.7078C99.7589 34.6362 98.6135 35.1196 97.5754 35.6029C97.5754 35.6029 97.2532 34.8153 97.2353 34.7794C98.1839 34.2782 99.7053 33.7412 101.406 33.8486C103.858 34.0097 104.949 35.2628 104.949 37.5005C104.949 37.5005 104.949 44.4284 104.949 44.5537C104.949 44.679 104.896 44.7149 104.788 44.7149C104.556 44.7149 104.144 44.7149 104.09 44.7149C104.001 44.7149 103.947 44.6969 103.947 44.5537C103.947 44.4284 103.947 43.7482 103.947 43.7482C103.178 44.4284 101.728 45.0192 99.9558 44.9834C98.166 44.9834 96.6983 44.0704 96.6983 42.0654ZM103.929 42.3339C103.929 42.1549 103.929 39.6666 103.929 39.04C103.929 38.8968 103.876 38.8252 103.679 38.8252C99.1683 39.0042 97.7543 40.329 97.7543 42.0117C97.7543 43.5333 98.8998 44.1599 100.35 44.1241C101.656 44.1241 103.016 43.6049 103.804 42.7278C103.876 42.6383 103.929 42.5488 103.929 42.3339ZM108.064 44.7149V28.8182H109.138V44.7149H108.064ZM80.6794 43.2111H78.1916C76.4733 43.2111 75.9901 42.5667 75.9901 41.7074C75.9901 41.0092 76.348 40.5438 76.7955 40.1499C77.3503 40.4006 78.3526 40.5975 79.0149 40.5975C81.6101 40.5975 83.2389 39.2907 83.2389 37.232C83.2389 36.1758 82.8093 35.4418 82.0397 34.9406C82.1113 34.9406 84.3128 34.9406 84.3128 34.9406C84.3128 34.9406 84.3128 34.2782 84.3128 34.2245C84.3128 34.1529 84.2769 34.0992 84.2054 34.0992C84.1338 34.0992 80.6078 34.0992 80.6078 34.0992C80.2319 33.9739 79.6592 33.8665 79.0149 33.8665C76.5091 33.8665 74.7551 35.0838 74.7551 37.232C74.7551 38.4851 75.4531 39.3802 76.1153 39.7919C75.6142 40.1678 74.9341 40.866 74.9341 41.8327C74.9341 42.692 75.2741 43.3722 76.1153 43.8198C74.9162 44.2673 74.2539 45.2519 74.2539 46.5408C74.2539 48.4742 76.0975 49.7273 79.0149 49.7273C82.6303 49.7273 84.4917 47.8297 84.4917 45.8427C84.4917 44.0346 83.3462 43.2111 80.6794 43.2111ZM79.0149 34.672C80.751 34.672 82.2008 35.6745 82.2008 37.2499C82.2008 38.9505 80.7152 39.8635 79.0149 39.8635C77.225 39.8635 75.829 38.9684 75.829 37.2499C75.829 35.4955 77.2608 34.672 79.0149 34.672ZM79.1402 48.8859C76.706 48.8859 75.3099 47.9013 75.3099 46.4513C75.3099 45.3235 76.1332 44.2315 77.8157 44.2315C77.9768 44.2315 80.7331 44.2136 80.7331 44.2136C82.5229 44.2136 83.4178 44.697 83.4178 45.968C83.4178 47.418 81.9502 48.8859 79.1402 48.8859Z" fill="#00004B"/>
<path d="M52.5792 11.1314C52.1317 9.18011 51.9527 7.26463 52.7045 5.38496C53.2414 4.04234 54.2974 3.18306 55.4966 2.4849C57.2327 1.48241 59.1478 0.963258 61.0987 0.605225C61.7789 0.479914 62.459 0.372504 63.157 0.247192C62.8528 0.999061 62.4948 1.69722 62.2979 2.41329C61.9221 3.77381 61.6536 5.15224 61.3314 6.53066C60.9019 8.41033 59.828 9.78876 57.9844 10.4332C57.3938 10.648 56.7316 10.6838 56.1051 10.7555C55.1744 10.845 54.2258 10.8629 53.2951 10.9345C53.0803 10.9524 52.8655 11.0419 52.5792 11.1314Z" fill="#009933"/>
<path d="M112.252 11.3999C111.339 11.3999 110.605 12.1339 110.605 13.0289C110.605 13.9419 111.321 14.6759 112.252 14.6759C113.164 14.6759 113.88 13.9598 113.88 13.0289C113.862 12.116 113.164 11.3999 112.252 11.3999ZM113.182 14.0672C112.95 14.3 112.627 14.4432 112.287 14.4432H112.27C111.482 14.4432 110.891 13.8345 110.891 13.0469C110.891 12.2592 111.482 11.6505 112.234 11.6505H112.252C113.003 11.6505 113.594 12.2592 113.594 13.0469C113.594 13.4407 113.451 13.7987 113.182 14.0672Z" fill="#00004B"/>
<path d="M112.269 13.2795L112.627 13.9061H113.021L112.609 13.2258H112.627C112.86 13.1721 112.985 13.011 112.985 12.7245C112.985 12.3307 112.806 12.1875 112.341 12.1875H111.553V13.9061H111.911V13.2616L112.269 13.2795ZM111.911 12.456H112.323C112.538 12.456 112.627 12.5276 112.627 12.7245C112.627 12.9215 112.538 12.9931 112.323 12.9931H111.911V12.456Z" fill="#00004B"/>
</g>
<defs>
<clipPath id="clip0">
<rect width="114" height="49.963" fill="white"/>
</clipPath>
</defs>
</svg>
