<svg width="49" height="40" viewBox="0 0 49 40" fill="none" xmlns="http://www.w3.org/2000/svg">
<path d="M35.4277 12.9813C35.0063 12.3634 34.5688 11.7536 34.1231 11.1357C23.2251 14.4337 11.2008 21.9202 4.47559 29.5031C5.25344 30.0808 6.01509 30.6585 6.75243 31.2443C9.21563 28.5803 12.011 26.1249 15.1062 23.9343C20.1461 19.9222 28.8078 15.196 35.4277 12.9813Z" fill="#97CA43"/>
<path d="M35.4277 12.9813C35.0063 12.3634 34.5688 11.7536 34.1231 11.1357C23.2251 14.4337 11.2008 21.9202 4.47559 29.5031C5.25344 30.0808 6.01509 30.6585 6.75243 31.2443C9.21563 28.5803 12.011 26.1249 15.1062 23.9343C20.1461 19.9222 28.8078 15.196 35.4277 12.9813Z" stroke="#97CA43" stroke-width="0.7275" stroke-miterlimit="10" stroke-linecap="round" stroke-linejoin="round"/>
<path d="M33.1755 9.85186C32.584 9.06549 31.9763 8.28715 31.3443 7.5088C20.0331 11.0796 7.66033 18.879 0.619141 26.815C1.47802 27.3847 2.32069 27.9544 3.14716 28.5401C9.98578 20.8369 22.1316 13.2461 33.1755 9.85186Z" fill="#97CA43"/>
<path d="M33.1755 9.85186C32.584 9.06549 31.9763 8.28715 31.3443 7.5088C20.0331 11.0796 7.66033 18.879 0.619141 26.815C1.47802 27.3847 2.32069 27.9544 3.14716 28.5401C9.98578 20.8369 22.1316 13.2461 33.1755 9.85186Z" stroke="#97CA43" stroke-width="0.7275" stroke-miterlimit="10" stroke-linecap="round" stroke-linejoin="round"/>
<path d="M45.7263 18.3094C41.7803 18.7667 36.8134 20.508 33.232 21.7036C27.2361 24.0707 21.9288 27.4088 17.5615 31.4289C18.0882 32.0227 18.5987 32.6164 19.0929 33.2102C26.0612 27.2804 36.4245 23.0516 46.812 21.7437C46.4555 20.8851 46.1233 19.184 45.7263 18.3094Z" fill="#97CA43"/>
<path d="M45.7263 18.3094C41.7803 18.7667 36.8134 20.508 33.232 21.7036C27.2361 24.0707 21.9288 27.4088 17.5615 31.4289C18.0882 32.0227 18.5987 32.6164 19.0929 33.2102C26.0612 27.2804 36.4245 23.0516 46.812 21.7437C46.4555 20.8851 46.1233 19.184 45.7263 18.3094Z" stroke="#97CA43" stroke-width="0.7275" stroke-miterlimit="10" stroke-linecap="round" stroke-linejoin="round"/>
<path d="M30.9639 20.7326C31.8228 19.4488 32.7384 18.189 33.6945 16.9693C27.5203 18.8309 21.8889 21.6314 17.0274 25.1299C16.525 26.6384 16.0794 28.1711 15.6904 29.7197C20.0496 26.0206 25.211 22.9393 30.9639 20.7326Z" fill="#97CA43"/>
<path d="M30.9639 20.7326C31.8228 19.4488 32.7384 18.189 33.6945 16.9693C27.5203 18.8309 21.8889 21.6314 17.0274 25.1299C16.525 26.6384 16.0794 28.1711 15.6904 29.7197C20.0496 26.0206 25.211 22.9393 30.9639 20.7326Z" stroke="#97CA43" stroke-width="0.7275" stroke-miterlimit="10" stroke-linecap="round" stroke-linejoin="round"/>
<path d="M48.522 25.828C48.2465 25.0416 47.6469 23.854 47.339 23.0596C37.0891 24.3114 26.8555 28.484 20.0088 34.3336C20.5517 35.0237 21.0864 35.7057 21.5888 36.4038C28.2249 30.6746 38.5233 26.9995 48.522 25.828Z" fill="#97CA43"/>
<path d="M48.522 25.828C48.2465 25.0416 47.6469 23.854 47.339 23.0596C37.0891 24.3114 26.8555 28.484 20.0088 34.3336C20.5517 35.0237 21.0864 35.7057 21.5888 36.4038C28.2249 30.6746 38.5233 26.9995 48.522 25.828Z" stroke="#97CA43" stroke-width="0.7275" stroke-miterlimit="10" stroke-linecap="round" stroke-linejoin="round"/>
<path d="M45.0779 26.173C43.903 30.4258 40.9618 34.2213 37.0887 36.6446C35.1441 37.8562 32.9726 38.7148 30.7119 39.2043C28.4432 39.6937 26.0934 39.7339 23.7842 39.4771C19.1495 38.9555 14.6606 36.7168 11.5006 33.2022C8.30813 29.7037 6.61468 24.9774 6.58227 20.2993C6.55797 15.5892 8.36485 10.895 11.5249 7.4045C14.6768 3.91399 19.0846 1.57094 23.7193 0.969124C28.3459 0.311142 33.1589 1.31416 37.0401 3.74549C40.9212 6.15274 43.8706 9.94817 45.0617 14.201C43.3034 10.1648 40.1839 6.84281 36.3757 4.88492C32.5917 2.8869 28.1758 2.28509 24.0516 3.03936C19.9435 3.80968 16.111 5.92806 13.4533 9.08156C12.1164 10.6382 11.0387 12.4116 10.3257 14.3213C9.61266 16.2311 9.27235 18.2612 9.28045 20.2993C9.26425 24.3836 10.7146 28.4599 13.4209 31.5412C14.7497 33.0979 16.3784 34.4058 18.1933 35.4008C20.0164 36.3798 22.0097 37.0618 24.084 37.4149C28.2406 38.113 32.6322 37.5353 36.4162 35.5132C40.2163 33.5472 43.3358 30.2172 45.0779 26.173Z" fill="#398640"/>
</svg>
