<svg width="221" height="98" viewBox="0 0 221 98" fill="none" xmlns="http://www.w3.org/2000/svg">
<path d="M53.2884 35.5587C52.8048 34.8495 52.3026 34.1496 51.7911 33.4404C39.2829 37.2256 25.482 45.8183 17.7632 54.5215C18.656 55.1846 19.5301 55.8477 20.3764 56.52C23.2036 53.4623 26.412 50.6442 29.9645 48.1299C35.749 43.5251 45.6904 38.1005 53.2884 35.5587Z" fill="#97CA43"/>
<path d="M53.2884 35.5587C52.8048 34.8495 52.3026 34.1496 51.7911 33.4404C39.2829 37.2256 25.482 45.8183 17.7632 54.5215C18.656 55.1846 19.5301 55.8477 20.3764 56.52C23.2036 53.4623 26.412 50.6442 29.9645 48.1299C35.749 43.5251 45.6904 38.1005 53.2884 35.5587Z" stroke="#97CA43" stroke-width="0.7275" stroke-miterlimit="10" stroke-linecap="round" stroke-linejoin="round"/>
<path d="M50.7024 31.9668C50.0236 31.0643 49.3261 30.1709 48.6007 29.2776C35.6182 33.3759 21.4174 42.3277 13.3359 51.4362C14.3217 52.09 15.2889 52.7439 16.2375 53.4162C24.0865 44.5749 38.0268 35.8625 50.7024 31.9668Z" fill="#97CA43"/>
<path d="M50.7024 31.9668C50.0236 31.0643 49.3261 30.1709 48.6007 29.2776C35.6182 33.3759 21.4174 42.3277 13.3359 51.4362C14.3217 52.09 15.2889 52.7439 16.2375 53.4162C24.0865 44.5749 38.0268 35.8625 50.7024 31.9668Z" stroke="#97CA43" stroke-width="0.7275" stroke-miterlimit="10" stroke-linecap="round" stroke-linejoin="round"/>
<path d="M65.1073 41.6738C60.5783 42.1988 54.8775 44.1973 50.767 45.5695C43.8852 48.2864 37.7938 52.1176 32.7812 56.7317C33.3857 57.4132 33.9716 58.0947 34.5389 58.7762C42.5367 51.9703 54.4311 47.1168 66.3534 45.6156C65.9442 44.6301 65.563 42.6777 65.1073 41.6738Z" fill="#97CA43"/>
<path d="M65.1073 41.6738C60.5783 42.1988 54.8775 44.1973 50.767 45.5695C43.8852 48.2864 37.7938 52.1176 32.7812 56.7317C33.3857 57.4132 33.9716 58.0947 34.5389 58.7762C42.5367 51.9703 54.4311 47.1168 66.3534 45.6156C65.9442 44.6301 65.563 42.6777 65.1073 41.6738Z" stroke="#97CA43" stroke-width="0.7275" stroke-miterlimit="10" stroke-linecap="round" stroke-linejoin="round"/>
<path d="M48.1634 44.4551C49.1492 42.9815 50.2001 41.5356 51.2974 40.1357C44.211 42.2724 37.7476 45.4866 32.1678 49.502C31.5912 51.2334 31.0797 52.9925 30.6333 54.77C35.6366 50.5243 41.5606 46.9878 48.1634 44.4551Z" fill="#97CA43"/>
<path d="M48.1634 44.4551C49.1492 42.9815 50.2001 41.5356 51.2974 40.1357C44.211 42.2724 37.7476 45.4866 32.1678 49.502C31.5912 51.2334 31.0797 52.9925 30.6333 54.77C35.6366 50.5243 41.5606 46.9878 48.1634 44.4551Z" stroke="#97CA43" stroke-width="0.7275" stroke-miterlimit="10" stroke-linecap="round" stroke-linejoin="round"/>
<path d="M68.3167 50.3033C68.0006 49.4008 67.3124 48.0377 66.959 47.126C55.1948 48.5627 43.4491 53.3517 35.5908 60.0656C36.2139 60.8576 36.8277 61.6405 37.4043 62.4417C45.0208 55.866 56.8408 51.6479 68.3167 50.3033Z" fill="#97CA43"/>
<path d="M68.3167 50.3033C68.0006 49.4008 67.3124 48.0377 66.959 47.126C55.1948 48.5627 43.4491 53.3517 35.5908 60.0656C36.2139 60.8576 36.8277 61.6405 37.4043 62.4417C45.0208 55.866 56.8408 51.6479 68.3167 50.3033Z" stroke="#97CA43" stroke-width="0.7275" stroke-miterlimit="10" stroke-linecap="round" stroke-linejoin="round"/>
<path d="M64.3637 50.6994C63.0152 55.5805 59.6394 59.9367 55.1941 62.718C52.9622 64.1087 50.4698 65.0941 47.8752 65.6559C45.2713 66.2177 42.5743 66.2638 39.9239 65.9691C34.6044 65.3704 29.4523 62.8009 25.8254 58.7671C22.1613 54.7516 20.2177 49.3271 20.1805 43.9579C20.1526 38.5518 22.2264 33.1641 25.8533 29.1578C29.4709 25.1516 34.53 22.4624 39.8495 21.7717C45.1597 21.0165 50.6837 22.1677 55.1383 24.9582C59.5929 27.7211 62.978 32.0773 64.3451 36.9585C62.3271 32.326 58.7466 28.5132 54.3757 26.266C50.0328 23.9728 44.9644 23.282 40.2308 24.1478C35.5158 25.0319 31.117 27.4633 28.0667 31.0827C26.5322 32.8694 25.2953 34.9047 24.477 37.0966C23.6586 39.2885 23.268 41.6186 23.2773 43.9579C23.2587 48.6456 24.9233 53.3241 28.0295 56.8607C29.5546 58.6473 31.4239 60.1485 33.507 61.2905C35.5995 62.4141 37.8872 63.1969 40.268 63.6022C45.0388 64.4034 50.0792 63.7403 54.4222 61.4195C58.7838 59.1631 62.3643 55.3411 64.3637 50.6994Z" fill="#398640"/>
<path fill-rule="evenodd" clip-rule="evenodd" d="M159.548 49.6128C159.548 52.4862 159.548 55.332 159.548 58.1962C157.79 58.1962 156.042 58.1962 154.284 58.1962C154.284 50.0088 154.284 41.8214 154.284 33.6063C154.34 33.6063 154.405 33.6063 154.47 33.6063C158.813 33.6063 163.147 33.5971 167.49 33.6155C168.699 33.6155 169.908 33.68 171.098 33.9563C172.298 34.2234 173.274 34.8404 174.102 35.7245C175.265 36.9678 176.046 38.4046 176.306 40.0807C176.743 42.8805 176.148 45.4224 174.204 47.5682C173.209 48.655 171.944 49.3089 170.466 49.4746C169.675 49.5667 168.885 49.6128 168.085 49.6128C165.323 49.6312 162.552 49.622 159.78 49.622C159.715 49.6128 159.641 49.6128 159.548 49.6128ZM159.557 45.2474C159.65 45.2474 159.725 45.2474 159.79 45.2474C162.077 45.2474 164.365 45.2474 166.653 45.2474C167.109 45.2474 167.564 45.2197 168.011 45.1737C169.071 45.0632 169.843 44.5382 170.233 43.5252C170.67 42.3647 170.754 41.1859 170.41 39.9978C170.131 39.0308 169.517 38.3493 168.504 38.1283C168.066 38.0362 167.62 37.9717 167.174 37.9717C164.7 37.9533 162.226 37.9625 159.752 37.9625C159.687 37.9625 159.632 37.9717 159.557 37.9717C159.557 40.4031 159.557 42.816 159.557 45.2474Z" fill="black"/>
<path fill-rule="evenodd" clip-rule="evenodd" d="M129.369 33.6063C129.444 33.6063 129.509 33.6063 129.574 33.6063C133.898 33.6063 138.213 33.5971 142.538 33.6155C143.765 33.6155 144.984 33.68 146.183 33.9563C147.374 34.2326 148.35 34.8496 149.178 35.7245C150.34 36.9586 151.112 38.3954 151.373 40.0623C151.819 42.8621 151.224 45.4039 149.271 47.5498C148.276 48.6458 147.002 49.2996 145.514 49.4654C144.742 49.5483 143.951 49.6036 143.17 49.6036C140.399 49.622 137.627 49.6128 134.847 49.6128C134.772 49.6128 134.698 49.6128 134.605 49.6128C134.605 52.4862 134.605 55.332 134.605 58.1962C132.847 58.1962 131.099 58.1962 129.351 58.1962C129.369 50.0088 129.369 41.8122 129.369 33.6063ZM134.633 45.2474C134.717 45.2474 134.791 45.2474 134.865 45.2474C137.181 45.2474 139.487 45.2474 141.803 45.2474C142.24 45.2474 142.677 45.2197 143.105 45.1737C144.147 45.0632 144.909 44.5566 145.3 43.5712C145.765 42.3924 145.839 41.1859 145.486 39.9794C145.235 39.1321 144.714 38.4874 143.83 38.2019C143.319 38.0362 142.779 37.9809 142.24 37.9809C139.776 37.9717 137.302 37.9717 134.837 37.9717C134.772 37.9717 134.717 37.9717 134.642 37.9717C134.633 40.4031 134.633 42.816 134.633 45.2474Z" fill="black"/>
<path fill-rule="evenodd" clip-rule="evenodd" d="M178.425 45.9841C178.453 44.0316 178.658 42.1068 179.272 40.2464C179.681 39.0031 180.267 37.8519 181.132 36.8573C182.155 35.6876 183.438 34.8864 184.898 34.3522C186.237 33.8641 187.632 33.6062 189.055 33.4865C190.301 33.3852 191.547 33.3944 192.793 33.5234C194.598 33.7168 196.327 34.1404 197.936 35.0061C199.74 35.9639 201.005 37.3914 201.768 39.2794C202.307 40.6148 202.633 41.9871 202.809 43.4146C202.958 44.575 203.014 45.7446 202.967 46.9235C202.893 48.9588 202.54 50.9297 201.665 52.7901C200.484 55.3227 198.494 56.9252 195.816 57.7173C194.598 58.0764 193.351 58.2699 192.077 58.3343C189.994 58.4356 187.948 58.2514 185.949 57.6436C184.535 57.2107 183.233 56.5753 182.099 55.6359C180.75 54.5123 179.867 53.0756 179.281 51.4547C178.853 50.2666 178.611 49.0417 178.518 47.78C178.472 47.1721 178.453 46.5827 178.425 45.9841ZM184.256 45.8091C184.293 46.4538 184.312 47.0985 184.359 47.7339C184.442 48.747 184.628 49.7324 185 50.6903C185.679 52.4493 186.925 53.5913 188.804 54.0058C190.013 54.2728 191.222 54.282 192.431 54.0518C194.226 53.711 195.509 52.7256 196.272 51.0679C196.839 49.8245 197.043 48.4983 197.127 47.1445C197.192 46.1407 197.174 45.1368 197.09 44.1329C196.997 43.0922 196.82 42.07 196.439 41.0937C195.807 39.4452 194.681 38.3124 192.933 37.8519C191.64 37.5112 190.329 37.4927 189.008 37.7506C188.051 37.944 187.176 38.3124 186.423 38.9295C185.521 39.6662 185.01 40.6425 184.721 41.7384C184.368 43.0646 184.284 44.4277 184.256 45.8091Z" fill="black"/>
<path fill-rule="evenodd" clip-rule="evenodd" d="M107.292 49.1432C107.283 47.6513 107.534 46.1961 108.185 44.8423C109.208 42.6964 110.891 41.2874 113.142 40.5229C114.611 40.0256 116.127 39.8967 117.661 39.9704C118.88 40.0348 120.07 40.2282 121.205 40.6703C122.925 41.3242 124.19 42.5122 125.12 44.0595C125.873 45.312 126.282 46.6842 126.413 48.1302C126.543 49.4748 126.487 50.8102 126.134 52.118C125.362 55.0098 123.511 56.9162 120.656 57.8648C119.14 58.3714 117.578 58.5003 115.988 58.4174C114.816 58.3621 113.672 58.1595 112.575 57.7543C109.998 56.7781 108.408 54.9361 107.683 52.3298C107.404 51.2891 107.292 50.2208 107.292 49.1432ZM112.379 49.2353C112.379 50.101 112.454 50.9668 112.723 51.7956C113.123 53.0574 113.895 53.9875 115.206 54.4204C115.913 54.6506 116.639 54.6967 117.383 54.6506C119.047 54.5401 120.293 53.7573 120.907 52.1456C121.186 51.4088 121.307 50.6444 121.354 49.8524C121.409 48.7104 121.354 47.5684 120.972 46.4724C120.544 45.2383 119.745 44.3634 118.461 43.9674C117.671 43.7279 116.862 43.7003 116.053 43.8108C114.537 44.0042 113.467 44.7778 112.891 46.1961C112.482 47.1724 112.379 48.1946 112.379 49.2353Z" fill="black"/>
<path fill-rule="evenodd" clip-rule="evenodd" d="M101.712 45.7456C101.898 45.8746 102.093 46.0035 102.279 46.1416C103.628 47.1363 104.539 48.4072 104.874 50.0558C105.162 51.4925 105.116 52.92 104.549 54.2922C103.767 56.1802 102.289 57.2762 100.354 57.8196C99.3408 58.1051 98.2806 58.1787 97.2297 58.1787C93.3331 58.1972 89.4365 58.2064 85.5399 58.2156C85.4934 58.2156 85.4469 58.2156 85.3911 58.2064C85.3911 56.7604 85.3911 55.3145 85.3911 53.8502C85.4655 53.8502 85.5399 53.8502 85.6143 53.8502C88.832 53.8502 92.059 53.8502 95.2768 53.8502C95.9091 53.8502 96.5415 53.8133 97.1646 53.6752C98.4945 53.3805 99.1548 52.6069 99.2199 51.253C99.2478 50.7005 99.192 50.1479 98.9967 49.6321C98.6526 48.748 97.9923 48.2323 97.053 48.0941C96.4485 48.0112 95.8441 47.956 95.2396 47.9467C92.0311 47.9283 88.8227 47.9375 85.6143 47.9375C85.5399 47.9375 85.4748 47.9375 85.3911 47.9375C85.3911 46.4916 85.3911 45.0641 85.3911 43.609C85.4748 43.609 85.5492 43.609 85.6236 43.609C88.9343 43.609 92.245 43.6182 95.5558 43.5998C96.123 43.5998 96.6996 43.5445 97.2669 43.4616C98.2248 43.3235 98.82 42.7617 99.0618 41.8315C99.2943 40.929 99.2664 40.0448 98.7921 39.2159C98.3829 38.4884 97.7412 38.0831 96.9042 37.9911C96.4578 37.945 96.0021 37.9174 95.5465 37.9174C92.245 37.9174 88.9343 37.9174 85.6329 37.9174C85.5585 37.9174 85.4748 37.9174 85.3911 37.9174C85.3911 36.4715 85.3911 35.0439 85.3911 33.5888C85.4562 33.5888 85.5213 33.5888 85.5771 33.5888C89.5109 33.5888 93.4447 33.5796 97.3785 33.5888C98.3271 33.5888 99.285 33.6072 100.206 33.8467C101.907 34.298 103.172 35.3202 104.028 36.8214C105.051 38.5897 105.302 40.4685 104.67 42.4301C104.316 43.5261 103.6 44.3734 102.679 45.0549C102.372 45.3128 102.047 45.5246 101.712 45.7456Z" fill="black"/>
</svg>
