<svg width="32" height="37" viewBox="0 0 32 37" fill="none" xmlns="http://www.w3.org/2000/svg">
<path fill-rule="evenodd" clip-rule="evenodd" d="M7 8V6H25V8H7ZM7 13H25V11H7V13ZM7 18H25V16H7V18Z" fill="#696F88"/>
<path d="M4.14044 35H0.892438V29.288H4.14044V30.144H1.91644V31.6H3.99644V32.456H1.91644V34.136H4.14044V35ZM9.68938 35H8.52138L7.12138 32.72L5.71338 35H4.62538L6.52138 32.04L4.74538 29.288H5.87338L7.16938 31.416L8.45738 29.288H9.55338L7.76938 32.08L9.68938 35ZM12.1433 29.288C12.8846 29.288 13.4233 29.4427 13.7593 29.752C14.1006 30.056 14.2713 30.4827 14.2713 31.032C14.2713 31.3573 14.202 31.6613 14.0633 31.944C13.9246 32.2267 13.69 32.456 13.3593 32.632C13.034 32.808 12.5913 32.896 12.0313 32.896H11.4633V35H10.4393V29.288H12.1433ZM12.0793 30.136H11.4633V32.048H11.9273C12.3433 32.048 12.6633 31.9733 12.8873 31.824C13.1166 31.6693 13.2313 31.4187 13.2313 31.072C13.2313 30.7573 13.138 30.5227 12.9513 30.368C12.7646 30.2133 12.474 30.136 12.0793 30.136ZM18.522 35L18.002 33.488H15.85L15.338 35H14.25L16.346 29.264H17.514L19.61 35H18.522ZM17.738 32.608L17.242 31.136C17.2207 31.0667 17.1887 30.968 17.146 30.84C17.1033 30.7067 17.0633 30.5733 17.026 30.44C16.9887 30.3013 16.9567 30.1867 16.93 30.096C16.9033 30.208 16.8687 30.3333 16.826 30.472C16.7887 30.6107 16.7513 30.7413 16.714 30.864C16.682 30.9867 16.6553 31.0773 16.634 31.136L16.13 32.608H17.738ZM25.2172 35H23.9452L21.2412 30.52H21.2092C21.2199 30.76 21.2305 31.0187 21.2412 31.296C21.2572 31.568 21.2705 31.8427 21.2812 32.12V35H20.3612V29.288H21.6252L24.3212 33.736H24.3452C24.3399 33.5227 24.3292 33.2773 24.3132 33C24.3025 32.7227 24.2945 32.4533 24.2892 32.192V29.288H25.2172V35ZM31.3769 32.088C31.3769 33.0533 31.1076 33.7813 30.5689 34.272C30.0303 34.7573 29.2783 35 28.3129 35H26.7049V29.288H28.4809C29.0729 29.288 29.5849 29.3947 30.0169 29.608C30.4489 29.8213 30.7823 30.136 31.0169 30.552C31.2569 30.968 31.3769 31.48 31.3769 32.088ZM30.3049 32.12C30.3049 31.4373 30.1476 30.936 29.8329 30.616C29.5183 30.296 29.0676 30.136 28.4809 30.136H27.7289V34.144H28.3449C29.6516 34.144 30.3049 33.4693 30.3049 32.12Z" fill="#696F88"/>
</svg>
