<svg width="32" height="37" viewBox="0 0 32 37" fill="none" xmlns="http://www.w3.org/2000/svg">
<path fill-rule="evenodd" clip-rule="evenodd" d="M7 6V8H20V6H7ZM17 13H7V11H17V13ZM20 18H7V16H20V18ZM21.43 12L25.01 15.59L23.6 17L18.6 12L23.6 7L25.01 8.41L21.43 12Z" fill="#696F88"/>
<path d="M7.426 30.072C6.90867 30.072 6.506 30.2587 6.218 30.632C5.93 31 5.786 31.5067 5.786 32.152C5.786 32.8027 5.91933 33.3093 6.186 33.672C6.45267 34.0347 6.86333 34.216 7.418 34.216C7.658 34.216 7.89267 34.192 8.122 34.144C8.35667 34.0907 8.59667 34.0213 8.842 33.936V34.808C8.60733 34.904 8.37 34.9733 8.13 35.016C7.89533 35.0587 7.62333 35.08 7.314 35.08C6.72733 35.08 6.242 34.96 5.858 34.72C5.474 34.4747 5.18867 34.1333 5.002 33.696C4.81533 33.2533 4.722 32.736 4.722 32.144C4.722 31.568 4.826 31.0613 5.034 30.624C5.242 30.1813 5.546 29.8347 5.946 29.584C6.35133 29.3333 6.84467 29.208 7.426 29.208C7.714 29.208 7.99667 29.24 8.274 29.304C8.55667 29.368 8.82067 29.4613 9.066 29.584L8.714 30.424C8.51133 30.3333 8.30067 30.2533 8.082 30.184C7.86867 30.1093 7.65 30.072 7.426 30.072ZM10.0721 35V29.288H11.0961V34.136H13.4801V35H10.0721ZM19.4183 32.136C19.4183 32.728 19.3196 33.2453 19.1223 33.688C18.9303 34.1253 18.6343 34.4667 18.2343 34.712C17.8343 34.9573 17.333 35.08 16.7303 35.08C16.117 35.08 15.613 34.9573 15.2183 34.712C14.8236 34.4667 14.5276 34.1227 14.3303 33.68C14.1383 33.2373 14.0423 32.72 14.0423 32.128C14.0423 31.5413 14.1383 31.0293 14.3303 30.592C14.5276 30.1493 14.8236 29.808 15.2183 29.568C15.6183 29.3227 16.125 29.2 16.7383 29.2C17.341 29.2 17.8396 29.3227 18.2343 29.568C18.6343 29.808 18.9303 30.1493 19.1223 30.592C19.3196 31.0293 19.4183 31.544 19.4183 32.136ZM15.1223 32.136C15.1223 32.7813 15.2503 33.288 15.5063 33.656C15.7676 34.024 16.1756 34.208 16.7303 34.208C17.301 34.208 17.7116 34.024 17.9623 33.656C18.213 33.288 18.3383 32.7813 18.3383 32.136C18.3383 31.4907 18.213 30.984 17.9623 30.616C17.7116 30.248 17.3036 30.064 16.7383 30.064C16.1783 30.064 15.7676 30.248 15.5063 30.616C15.2503 30.984 15.1223 31.4907 15.1223 32.136ZM23.9546 33.44C23.9546 33.9467 23.7706 34.3467 23.4026 34.64C23.0346 34.9333 22.5253 35.08 21.8746 35.08C21.2453 35.08 20.712 34.9733 20.2746 34.76V33.8C20.5146 33.9067 20.7786 34.0053 21.0666 34.096C21.36 34.1813 21.6533 34.224 21.9466 34.224C22.2933 34.224 22.544 34.1573 22.6986 34.024C22.8586 33.8853 22.9386 33.7093 22.9386 33.496C22.9386 33.2613 22.8373 33.0747 22.6346 32.936C22.432 32.792 22.136 32.6373 21.7466 32.472C21.512 32.376 21.2853 32.2587 21.0666 32.12C20.8533 31.976 20.6773 31.7973 20.5386 31.584C20.4053 31.3653 20.3386 31.0933 20.3386 30.768C20.3386 30.2827 20.5093 29.9013 20.8506 29.624C21.1973 29.3467 21.6586 29.208 22.2346 29.208C22.5333 29.208 22.816 29.24 23.0826 29.304C23.3546 29.368 23.6213 29.4587 23.8826 29.576L23.5546 30.4C23.3146 30.2987 23.0853 30.2187 22.8666 30.16C22.6533 30.1013 22.432 30.072 22.2026 30.072C21.9253 30.072 21.7146 30.1333 21.5706 30.256C21.4266 30.3787 21.3546 30.5413 21.3546 30.744C21.3546 30.8987 21.3946 31.032 21.4746 31.144C21.5546 31.2507 21.6773 31.3493 21.8426 31.44C22.0133 31.5307 22.232 31.6347 22.4986 31.752C22.808 31.8853 23.0693 32.0267 23.2826 32.176C23.5013 32.32 23.6666 32.4933 23.7786 32.696C23.896 32.8933 23.9546 33.1413 23.9546 33.44ZM28.2811 35H25.0331V29.288H28.2811V30.144H26.0571V31.6H28.1371V32.456H26.0571V34.136H28.2811V35Z" fill="#696F88"/>
</svg>
