<svg width="42" height="36" viewBox="0 0 42 36" fill="none" xmlns="http://www.w3.org/2000/svg">
<path d="M3.16291 34.08C2.42691 34.08 1.85624 33.8907 1.45091 33.512C1.05091 33.1333 0.837573 32.6 0.810906 31.912C0.805573 31.768 0.802906 31.5333 0.802906 31.208C0.802906 30.8773 0.805573 30.6373 0.810906 30.488C0.837573 29.8053 1.05357 29.2747 1.45891 28.896C1.86957 28.512 2.43757 28.32 3.16291 28.32C3.63757 28.32 4.05091 28.4027 4.40291 28.568C4.75491 28.728 5.02691 28.9493 5.21891 29.232C5.41091 29.5093 5.51224 29.824 5.52291 30.176V30.192C5.52291 30.2347 5.50424 30.272 5.46691 30.304C5.43491 30.3307 5.39757 30.344 5.35491 30.344H4.59491C4.53091 30.344 4.48291 30.3307 4.45091 30.304C4.41891 30.2773 4.39224 30.2267 4.37091 30.152C4.28557 29.816 4.14424 29.5813 3.94691 29.448C3.74957 29.3093 3.48557 29.24 3.15491 29.24C2.38691 29.24 1.98691 29.6693 1.95491 30.528C1.94957 30.672 1.94691 30.8933 1.94691 31.192C1.94691 31.4907 1.94957 31.7173 1.95491 31.872C1.98691 32.7307 2.38691 33.16 3.15491 33.16C3.48557 33.16 3.74957 33.0907 3.94691 32.952C4.14957 32.8133 4.29091 32.5787 4.37091 32.248C4.38691 32.1733 4.41091 32.1227 4.44291 32.096C4.48024 32.0693 4.53091 32.056 4.59491 32.056H5.35491C5.40291 32.056 5.44291 32.072 5.47491 32.104C5.51224 32.136 5.52824 32.176 5.52291 32.224C5.51224 32.576 5.41091 32.8933 5.21891 33.176C5.02691 33.4533 4.75491 33.6747 4.40291 33.84C4.05091 34 3.63757 34.08 3.16291 34.08ZM8.62366 34.08C7.89832 34.08 7.33299 33.896 6.92766 33.528C6.52232 33.16 6.30899 32.6133 6.28766 31.888C6.28232 31.7333 6.27966 31.5067 6.27966 31.208C6.27966 30.904 6.28232 30.6747 6.28766 30.52C6.30899 29.8107 6.52766 29.2667 6.94366 28.888C7.35966 28.5093 7.91966 28.32 8.62366 28.32C9.32766 28.32 9.88766 28.5093 10.3037 28.888C10.725 29.2667 10.9463 29.8107 10.9677 30.52C10.9783 30.8293 10.9837 31.0587 10.9837 31.208C10.9837 31.352 10.9783 31.5787 10.9677 31.888C10.941 32.6133 10.725 33.16 10.3197 33.528C9.91432 33.896 9.34899 34.08 8.62366 34.08ZM8.62366 33.16C8.98099 33.16 9.26632 33.0533 9.47966 32.84C9.69299 32.6213 9.80766 32.2907 9.82366 31.848C9.83432 31.528 9.83966 31.312 9.83966 31.2C9.83966 31.0773 9.83432 30.8613 9.82366 30.552C9.80766 30.1093 9.69299 29.7813 9.47966 29.568C9.26632 29.3493 8.98099 29.24 8.62366 29.24C8.27166 29.24 7.98899 29.3493 7.77566 29.568C7.56232 29.7813 7.44766 30.1093 7.43166 30.552C7.42632 30.7067 7.42366 30.9227 7.42366 31.2C7.42366 31.472 7.42632 31.688 7.43166 31.848C7.44766 32.2907 7.55966 32.6213 7.76766 32.84C7.98099 33.0533 8.26632 33.16 8.62366 33.16ZM12.2262 34C12.1728 34 12.1275 33.9813 12.0902 33.944C12.0528 33.9067 12.0342 33.8613 12.0342 33.808V28.592C12.0342 28.5333 12.0528 28.488 12.0902 28.456C12.1275 28.4187 12.1728 28.4 12.2262 28.4H12.9702C13.0288 28.4 13.0742 28.4187 13.1062 28.456C13.1435 28.488 13.1622 28.5333 13.1622 28.592V33.048H15.6982C15.7568 33.048 15.8048 33.0667 15.8422 33.104C15.8795 33.1413 15.8982 33.1893 15.8982 33.248V33.808C15.8982 33.8667 15.8795 33.9147 15.8422 33.952C15.8048 33.984 15.7568 34 15.6982 34H12.2262ZM16.8668 34C16.8134 34 16.7681 33.9813 16.7308 33.944C16.6934 33.9067 16.6748 33.8613 16.6748 33.808V28.592C16.6748 28.5333 16.6934 28.488 16.7308 28.456C16.7681 28.4187 16.8134 28.4 16.8668 28.4H17.6108C17.6694 28.4 17.7148 28.4187 17.7468 28.456C17.7841 28.488 17.8028 28.5333 17.8028 28.592V33.048H20.3388C20.3974 33.048 20.4454 33.0667 20.4828 33.104C20.5201 33.1413 20.5388 33.1893 20.5388 33.248V33.808C20.5388 33.8667 20.5201 33.9147 20.4828 33.952C20.4454 33.984 20.3974 34 20.3388 34H16.8668ZM20.9714 34C20.9287 34 20.8887 33.984 20.8514 33.952C20.8194 33.92 20.8034 33.88 20.8034 33.832L20.8194 33.76L22.7474 28.6C22.7847 28.4667 22.8781 28.4 23.0274 28.4H23.8994C24.0381 28.4 24.1314 28.4667 24.1794 28.6L26.1074 33.76C26.1127 33.776 26.1154 33.8 26.1154 33.832C26.1154 33.88 26.0994 33.92 26.0674 33.952C26.0354 33.984 25.9981 34 25.9554 34H25.2594C25.1901 34 25.1367 33.984 25.0994 33.952C25.0621 33.92 25.0381 33.8853 25.0274 33.848L24.6514 32.872H22.2754L21.8994 33.848C21.8567 33.9493 21.7794 34 21.6674 34H20.9714ZM24.3714 31.952L23.4594 29.48L22.5554 31.952H24.3714ZM27.0543 34C27.0009 34 26.9556 33.9813 26.9183 33.944C26.8809 33.9067 26.8623 33.8613 26.8623 33.808V28.6C26.8623 28.5413 26.8783 28.4933 26.9103 28.456C26.9476 28.4187 26.9956 28.4 27.0543 28.4H29.1983C29.8383 28.4 30.3423 28.552 30.7103 28.856C31.0783 29.1547 31.2623 29.5947 31.2623 30.176C31.2623 30.7573 31.0783 31.1973 30.7103 31.496C30.3476 31.7893 29.8436 31.936 29.1983 31.936H28.0063V33.808C28.0063 33.8613 27.9876 33.9067 27.9503 33.944C27.9183 33.9813 27.8729 34 27.8143 34H27.0543ZM29.1583 31.048C29.4676 31.048 29.7049 30.976 29.8703 30.832C30.0356 30.6827 30.1183 30.464 30.1183 30.176C30.1183 29.8987 30.0383 29.6827 29.8783 29.528C29.7183 29.368 29.4783 29.288 29.1583 29.288H27.9903V31.048H29.1583ZM34.0797 34.08C33.6051 34.08 33.1971 34.008 32.8557 33.864C32.5144 33.72 32.2557 33.5307 32.0797 33.296C31.9037 33.0613 31.8104 32.808 31.7997 32.536C31.7997 32.488 31.8157 32.448 31.8477 32.416C31.8797 32.384 31.9197 32.368 31.9677 32.368H32.6797C32.7437 32.368 32.7917 32.3813 32.8237 32.408C32.8611 32.4293 32.8957 32.4667 32.9277 32.52C32.9811 32.7013 33.1037 32.8533 33.2957 32.976C33.4877 33.0987 33.7491 33.16 34.0797 33.16C34.4584 33.16 34.7437 33.0987 34.9357 32.976C35.1277 32.848 35.2237 32.672 35.2237 32.448C35.2237 32.2987 35.1731 32.176 35.0717 32.08C34.9757 31.984 34.8291 31.9013 34.6317 31.832C34.4397 31.7627 34.1517 31.6773 33.7677 31.576C33.1384 31.4267 32.6771 31.2293 32.3837 30.984C32.0957 30.7333 31.9517 30.3787 31.9517 29.92C31.9517 29.6107 32.0344 29.336 32.1997 29.096C32.3704 28.856 32.6131 28.6667 32.9277 28.528C33.2477 28.3893 33.6184 28.32 34.0397 28.32C34.4771 28.32 34.8557 28.3973 35.1757 28.552C35.4957 28.7067 35.7384 28.9013 35.9037 29.136C36.0744 29.3653 36.1651 29.5947 36.1757 29.824C36.1757 29.872 36.1597 29.912 36.1277 29.944C36.0957 29.976 36.0557 29.992 36.0077 29.992H35.2637C35.1517 29.992 35.0744 29.9413 35.0317 29.84C34.9997 29.6693 34.8931 29.528 34.7117 29.416C34.5304 29.2987 34.3064 29.24 34.0397 29.24C33.7411 29.24 33.5064 29.296 33.3357 29.408C33.1651 29.52 33.0797 29.6827 33.0797 29.896C33.0797 30.0453 33.1224 30.168 33.2077 30.264C33.2931 30.36 33.4264 30.4453 33.6077 30.52C33.7944 30.5947 34.0611 30.6773 34.4077 30.768C34.8771 30.8747 35.2504 30.9947 35.5277 31.128C35.8104 31.2613 36.0184 31.4293 36.1517 31.632C36.2851 31.8347 36.3517 32.0933 36.3517 32.408C36.3517 32.7493 36.2557 33.048 36.0637 33.304C35.8771 33.5547 35.6104 33.7467 35.2637 33.88C34.9224 34.0133 34.5277 34.08 34.0797 34.08ZM37.4605 34C37.4072 34 37.3619 33.9813 37.3245 33.944C37.2872 33.9067 37.2685 33.8613 37.2685 33.808V28.6C37.2685 28.5413 37.2845 28.4933 37.3165 28.456C37.3539 28.4187 37.4019 28.4 37.4605 28.4H40.9805C41.0392 28.4 41.0872 28.4187 41.1245 28.456C41.1619 28.4933 41.1805 28.5413 41.1805 28.6V29.128C41.1805 29.1867 41.1619 29.2347 41.1245 29.272C41.0872 29.304 41.0392 29.32 40.9805 29.32H38.3485V30.736H40.8045C40.8632 30.736 40.9112 30.7547 40.9485 30.792C40.9859 30.824 41.0045 30.8693 41.0045 30.928V31.424C41.0045 31.4827 40.9859 31.5307 40.9485 31.568C40.9112 31.6 40.8632 31.616 40.8045 31.616H38.3485V33.08H41.0445C41.1032 33.08 41.1512 33.0987 41.1885 33.136C41.2259 33.1733 41.2445 33.2213 41.2445 33.28V33.808C41.2445 33.8667 41.2259 33.9147 41.1885 33.952C41.1512 33.984 41.1032 34 41.0445 34H37.4605Z" fill="#707374"/>
<path fill-rule="evenodd" clip-rule="evenodd" d="M16 5C15.4477 5 15 5.44772 15 6C15 6.55228 15.4477 7 16 7H28C28.5523 7 29 6.55228 29 6C29 5.44772 28.5523 5 28 5H16ZM13.0003 15.0002C13.2563 15.0002 13.5123 14.9023 13.7073 14.7073C14.0982 14.3162 14.0982 13.6842 13.7073 13.2933L12.4142 12.0002L13.7073 10.7073C14.0982 10.3162 14.0982 9.68425 13.7073 9.29325C13.3163 8.90225 12.6843 8.90225 12.2933 9.29325L10.2932 11.2933C9.90225 11.6842 9.90225 12.3163 10.2932 12.7073L12.2933 14.7073C12.4883 14.9023 12.7443 15.0002 13.0003 15.0002ZM15 12C15 11.4477 15.4477 11 16 11H28C28.5523 11 29 11.4477 29 12C29 12.5523 28.5523 13 28 13H16C15.4477 13 15 12.5523 15 12ZM16 17C15.4477 17 15 17.4477 15 18C15 18.5523 15.4477 19 16 19H28C28.5523 19 29 18.5523 29 18C29 17.4477 28.5523 17 28 17H16Z" fill="#707374"/>
</svg>
