<svg width="92" height="52" viewBox="0 0 92 52" fill="none" xmlns="http://www.w3.org/2000/svg">
<path d="M38.7249 26.2613C38.5821 26.178 38.4869 26.1185 38.3918 26.059C37.3329 25.4997 37.2734 24.0718 37.7136 23.3816C38.023 22.9056 38.4156 22.5487 38.8795 22.2393C38.9628 22.1917 39.0342 22.1322 39.1175 22.0846C39.0937 22.0489 39.0818 22.0132 39.0699 22.0013C38.1419 21.5134 37.904 20.6805 37.9635 19.7166C38.023 18.4196 38.8201 17.6938 39.9622 17.3011C41.4136 16.8013 42.8889 16.8013 44.3522 17.2535C45.6966 17.6819 46.1606 18.7171 46.0773 19.9308C45.9821 21.3587 45.1374 22.2512 43.5908 22.632C42.7342 22.8462 41.8776 22.9057 40.9972 22.7629C40.6284 22.7034 40.1644 22.9889 40.0455 23.3578C39.9622 23.6315 40.0812 23.9528 40.3905 24.0837C40.6998 24.2027 41.0448 24.286 41.3779 24.2979C42.1988 24.3336 43.0316 24.2741 43.8525 24.3217C44.3641 24.3574 44.8995 24.4526 45.3634 24.643C46.4223 25.0713 46.8506 25.9638 46.9101 27.0585C46.9934 28.7125 46.1606 29.8073 44.721 30.4974C43.5313 31.0686 42.2583 31.1995 40.9496 31.1043C40.1644 31.0448 39.3911 30.9139 38.6773 30.5569C37.666 30.0571 37.1426 29.0695 37.321 28.0105C37.44 27.3322 37.904 26.88 38.4275 26.4873C38.4988 26.4278 38.594 26.3565 38.7249 26.2613ZM41.8419 29.01C42.5082 29.0219 43.1268 28.891 43.6503 28.4626C44.0786 28.1057 44.257 27.4988 44.0786 27.0228C43.9239 26.5944 43.5194 26.3684 42.9008 26.3684C42.8413 26.3684 42.7818 26.3684 42.7342 26.3684C42.1393 26.3684 41.5326 26.404 40.9377 26.3565C40.4857 26.3327 40.1763 26.5111 39.9027 26.8205C39.284 27.4869 39.403 28.2127 40.2001 28.653C40.7117 28.9267 41.259 29.0219 41.8419 29.01ZM43.3885 19.907C43.3885 19.0622 42.8532 18.5148 42.0323 18.5148C41.259 18.5148 40.6284 19.1574 40.6284 19.9427C40.6284 20.7519 41.1757 21.3111 41.9728 21.3111C42.8413 21.3111 43.4004 20.7638 43.3885 19.907ZM27.042 17.2059C26.1973 17.2059 25.4002 17.2059 24.615 17.2178C24.5436 17.2178 24.4246 17.313 24.4008 17.3844C23.7108 19.205 23.0327 21.0375 22.3545 22.87C22.3307 22.9294 22.3069 22.9889 22.2593 23.096C22.0928 22.5368 21.9619 22.0251 21.7835 21.5372C21.2957 20.1807 20.796 18.8361 20.3082 17.4796C20.2368 17.2654 20.1179 17.2059 19.9156 17.2178C19.1304 17.2297 18.3452 17.2178 17.5481 17.2297C17.4529 17.2297 17.3696 17.2416 17.2388 17.2416C17.2983 17.4082 17.3577 17.5391 17.4053 17.67C18.4761 20.4306 19.5468 23.1912 20.6175 25.9638C20.6651 26.0709 20.7127 26.2137 20.677 26.3089C20.3796 27.0466 20.106 27.7963 19.5944 28.4269C19.1899 28.9148 18.6902 29.2004 18.0359 29.1528C17.7504 29.129 17.4767 29.0695 17.1912 29.0576C17.1079 29.0576 16.9532 29.1171 16.9414 29.1766C16.8105 29.7002 16.7034 30.2237 16.5725 30.783C17.0008 30.8544 17.3934 30.9377 17.7979 30.9853C19.0709 31.1281 20.2487 30.9139 21.2481 30.0214C21.9024 29.4384 22.3307 28.7125 22.6519 27.9153C23.8298 25.0237 25.0195 22.1322 26.2092 19.2407C26.4828 18.5624 26.7445 17.9079 27.042 17.2059ZM65.7312 26.1304C65.7312 23.8933 65.7669 21.6919 65.7074 19.4905C65.6717 18.0864 64.839 17.2059 63.5065 17.0036C62.2692 16.8132 61.1509 17.1583 60.092 17.777C60.0087 17.8246 59.9374 17.8722 59.8065 17.9317C59.8065 17.6581 59.8065 17.432 59.8065 17.194C59.7351 17.1821 59.6875 17.1583 59.6399 17.1583C58.8666 17.1583 58.0814 17.1583 57.3081 17.1583C57.1178 17.1583 57.1059 17.2654 57.1059 17.4082C57.1059 20.2283 57.1178 23.0603 57.1059 25.8805C57.1059 26.0828 57.1772 26.1423 57.3676 26.1423C58.129 26.1304 58.8904 26.1423 59.6399 26.1304C59.7113 26.1304 59.7827 26.1066 59.866 26.0947C59.866 25.9638 59.866 25.8448 59.866 25.7377C59.866 23.8457 59.866 21.9656 59.866 20.0736C59.866 19.9546 59.8898 19.788 59.9731 19.7166C60.4846 19.2645 61.0557 18.967 61.7695 19.0146C62.4833 19.0622 62.8878 19.4192 62.9473 20.145C62.9592 20.264 62.9592 20.3949 62.9592 20.5139C62.9592 22.2631 62.9592 24.0242 62.9592 25.7734C62.9592 25.8805 62.9592 25.9876 62.9592 26.1066C63.9229 26.1304 64.8152 26.1304 65.7312 26.1304ZM36.2741 26.1661C36.2741 25.9519 36.2741 25.7615 36.2741 25.583C36.2741 23.5482 36.286 21.5015 36.2503 19.4667C36.2265 18.1935 35.3699 17.2535 34.1088 17.0512C32.8953 16.8608 31.777 17.1821 30.7301 17.777C30.623 17.8365 30.5159 17.9079 30.3493 18.0031C30.3493 17.7889 30.3375 17.6462 30.3493 17.4915C30.3731 17.2535 30.2661 17.2059 30.0519 17.2059C29.3738 17.2178 28.7076 17.2178 28.0294 17.2059C27.7558 17.194 27.6606 17.2654 27.6606 17.5629C27.6725 20.3235 27.6725 23.0841 27.6725 25.8448C27.6725 25.9519 27.6725 26.0471 27.6725 26.178C27.8034 26.1899 27.8986 26.1899 28.0056 26.1899C28.6957 26.1899 29.3857 26.178 30.0876 26.1899C30.3731 26.2018 30.4564 26.1304 30.4564 25.8329C30.4445 23.929 30.4445 22.0251 30.4445 20.1093C30.4445 19.9903 30.4564 19.8356 30.5278 19.7761C31.087 19.2764 31.7175 18.9789 32.5027 19.0741C33.0857 19.1574 33.4426 19.5024 33.4902 20.0974C33.5021 20.2997 33.514 20.4901 33.514 20.6924C33.514 22.3821 33.514 24.0718 33.5259 25.7615C33.5259 26.1661 33.5259 26.1661 33.9185 26.1661C34.5966 26.1661 35.2628 26.1661 35.941 26.1661C36.0361 26.178 36.1432 26.1661 36.2741 26.1661ZM54.774 23.7148C55.0001 24.2265 55.238 24.75 55.4998 25.3331C55.0834 25.5116 54.6908 25.7139 54.2744 25.8567C52.9419 26.3208 51.5856 26.523 50.1937 26.2018C48.4091 25.7853 47.3979 24.6192 47.0528 22.8581C46.8149 21.6681 46.8982 20.4901 47.493 19.4073C48.3377 17.8841 49.6702 17.0988 51.3953 17.0036C52.0139 16.9679 52.6683 17.0393 53.275 17.194C54.4766 17.4915 55.238 18.2887 55.6068 19.4667C55.8924 20.3711 55.8686 21.2992 55.8329 22.2631C53.8461 22.2631 51.8712 22.2631 49.8962 22.2631C49.7773 23.2388 50.384 24.0361 51.3834 24.2741C52.4898 24.524 53.5248 24.3455 54.5242 23.8457C54.5956 23.81 54.6551 23.7743 54.7264 23.7386C54.7264 23.7267 54.7383 23.7267 54.774 23.7148ZM49.8962 20.4187C49.9438 20.4544 49.9557 20.4663 49.9676 20.4663C50.9313 20.4663 51.8949 20.4782 52.8586 20.4663C52.9062 20.4663 52.9895 20.3711 53.0014 20.3116C53.0133 19.8713 52.9181 19.4549 52.5612 19.1574C52.0496 18.7409 51.4667 18.7052 50.8837 18.967C50.2769 19.2645 50.0033 19.7999 49.8962 20.4187ZM79.2701 25.4164C78.7109 25.8567 78.1637 26.1185 77.545 26.2375C76.8193 26.3684 76.0936 26.3565 75.3917 26.1066C74.4756 25.7853 73.9402 25.0594 73.9045 24.0956C73.8212 22.3345 74.654 21.1565 76.391 20.7281C77.1881 20.5258 78.0328 20.4901 78.8537 20.3711C78.9489 20.3592 79.056 20.3592 79.1511 20.3473C79.3058 19.4905 78.8775 18.9432 78.0447 18.848C77.2238 18.7528 76.4624 18.9551 75.7248 19.2764C75.4749 19.3835 75.237 19.5143 74.9634 19.6452C74.7373 19.1098 74.5232 18.5862 74.2971 18.0388C75.0466 17.6105 75.82 17.3249 76.6409 17.1345C77.664 16.8965 78.699 16.8251 79.7341 17.0988C81.0785 17.4439 81.8399 18.3482 81.8518 19.7166C81.8756 21.7633 81.8637 23.81 81.8637 25.8686C81.8637 26.0709 81.7923 26.1304 81.6019 26.1304C80.9119 26.1185 80.2219 26.1185 79.5199 26.1304C79.2939 26.1304 79.2344 26.0471 79.2582 25.8448C79.2701 25.7377 79.2701 25.6187 79.2701 25.4164ZM79.1868 22.9532C79.1868 22.8105 79.1868 22.6677 79.1868 22.5249C79.1749 22.0132 79.282 22.037 78.6871 22.0608C78.1637 22.0727 77.6402 22.1084 77.1762 22.3821C76.7479 22.6439 76.5576 23.1198 76.6646 23.6672C76.736 24.0599 77.0453 24.3217 77.5212 24.4169C77.9733 24.5121 78.3778 24.3812 78.7585 24.1313C79.056 23.9409 79.2582 23.7029 79.1868 23.3102C79.1749 23.2031 79.1868 23.0722 79.1868 22.9532ZM9.51758 25.6425C9.64845 25.6901 9.74362 25.7258 9.8388 25.7615C11.0761 26.2256 12.3491 26.3921 13.6578 26.3208C14.3597 26.2851 15.0259 26.1066 15.6446 25.7853C16.7748 25.1784 17.2983 24.1432 17.1436 22.8224C17.0127 21.68 16.3227 20.9304 15.0973 20.5853C14.9545 20.5496 14.7999 20.5139 14.6571 20.4782C14.1574 20.3592 13.6578 20.264 13.17 20.1331C12.7774 20.026 12.5513 19.7642 12.5513 19.443C12.5513 19.1336 12.7655 18.848 13.17 18.7647C13.5031 18.6933 13.8481 18.6457 14.1812 18.6814C14.7642 18.7409 15.3352 18.8718 15.942 18.9908C16.1561 18.4553 16.3822 17.8722 16.6082 17.2892C16.5606 17.2654 16.525 17.2416 16.4893 17.2297C15.1211 16.8727 13.7291 16.6942 12.3253 16.9798C10.8144 17.2892 9.61276 18.3244 9.77931 20.2045C9.8507 20.9661 10.1362 21.6205 10.8263 21.9894C11.2664 22.2274 11.7661 22.3702 12.2539 22.513C12.8012 22.6796 13.3603 22.7629 13.9076 22.9294C14.3478 23.0603 14.5143 23.4173 14.3835 23.8219C14.2883 24.1194 14.0504 24.2741 13.7648 24.3574C13.2057 24.5121 12.6346 24.5121 12.0754 24.3812C11.4806 24.2503 10.8857 24.0718 10.2671 23.9052C10.0054 24.4645 9.76742 25.0356 9.51758 25.6425ZM70.8113 17.1583C70.8113 16.2182 70.8113 15.3139 70.8113 14.3857C69.9666 14.6237 69.1576 14.8617 68.3486 15.0759C68.1225 15.1354 68.0274 15.2187 68.0393 15.4805C68.0631 16.0278 68.0512 16.5752 68.0512 17.1702C67.5634 17.1702 67.0994 17.1702 66.6473 17.1702C66.6473 17.777 66.6473 18.3482 66.6473 18.9432C67.1232 18.9432 67.5872 18.9432 68.0512 18.9432C68.0512 19.086 68.0512 19.1931 68.0512 19.2883C68.0512 20.7638 68.0512 22.2274 68.0631 23.7029C68.075 24.9642 68.6103 25.7377 69.7524 26.1185C70.8827 26.4873 72.0248 26.3089 73.155 26.1423C73.2026 26.1304 73.274 26.0352 73.2621 25.9876C73.2145 25.4521 73.155 24.9166 73.1074 24.3574C72.8933 24.3812 72.7148 24.405 72.5364 24.4169C71.3229 24.5002 70.8232 24.1075 70.8232 22.9294C70.8232 21.7157 70.8232 20.502 70.8232 19.2883C70.8232 19.1812 70.8232 19.086 70.8232 18.9432C71.656 18.9432 72.4531 18.9432 73.274 18.9432C73.274 18.3958 73.274 17.8841 73.274 17.3725C73.274 17.1821 73.155 17.1821 73.0241 17.1821C72.5364 17.1821 72.0367 17.1821 71.5489 17.1821C71.2991 17.1583 71.073 17.1583 70.8113 17.1583ZM47.9808 35.5665C47.9808 33.2938 49.5036 31.8539 51.2882 31.8539C52.1805 31.8539 52.7872 32.0919 53.501 32.6274V28.5102H54.1911C54.1911 28.5102 54.1911 38.8983 54.1911 38.9697C54.1911 39.0292 54.1554 39.0768 54.0959 39.0768C54.0483 39.0768 53.7509 39.0768 53.5962 39.0768C53.5367 39.0768 53.501 39.053 53.501 38.9816C53.501 38.9102 53.501 38.4462 53.501 38.4462C52.9895 38.8983 52.0615 39.2553 51.074 39.2553C49.1943 39.2553 47.9808 37.9464 47.9808 35.5665ZM53.4891 37.518C53.4891 37.4347 53.4891 34.5313 53.4891 33.6031C53.4891 33.3651 53.4535 33.2938 53.2988 33.1867C52.6207 32.6512 51.9663 32.4251 51.312 32.4251C49.8368 32.4251 48.6946 33.7935 48.6946 35.5546C48.6946 37.4347 49.575 38.6722 51.1573 38.6722C51.9306 38.6722 52.7991 38.3867 53.3464 37.8036C53.4535 37.6965 53.4891 37.6251 53.4891 37.518ZM56.047 29.7478C56.047 29.3789 56.3326 29.1766 56.6657 29.1766C56.9988 29.1766 57.2843 29.3908 57.2843 29.7478C57.2843 30.0809 56.9988 30.3189 56.6657 30.3189C56.3326 30.3189 56.047 30.0809 56.047 29.7478ZM56.3088 32.0205H56.9988V39.0649H56.3088V32.0205ZM66.5521 29.7478C66.5521 29.3789 66.8377 29.1766 67.1708 29.1766C67.5039 29.1766 67.7894 29.3908 67.7894 29.7478C67.7894 30.0809 67.5039 30.3189 67.1708 30.3189C66.8377 30.3189 66.5521 30.0809 66.5521 29.7478ZM66.8139 32.0205H67.5039V39.0649H66.8139V32.0205ZM70.038 37.1253V32.5917H68.8721V32.0205H70.038C70.038 32.0205 70.038 30.3665 70.038 30.3308C70.038 30.2951 70.0499 30.2713 70.0856 30.2713C70.1094 30.2594 70.728 30.0809 70.728 30.0809V32.0205C70.728 32.0205 72.7505 32.0205 72.7981 32.0205C72.8576 32.0205 72.8933 32.0443 72.8933 32.1038C72.8933 32.1633 72.8933 32.5917 72.8933 32.5917H70.7399V37.1729C70.7399 38.0773 70.9778 38.6841 72.001 38.6841C72.2746 38.6841 72.6196 38.6127 72.9409 38.4937C72.9409 38.4937 72.9647 38.8507 72.9765 38.9221C72.9884 39.0054 72.9528 39.053 72.8576 39.0768C72.5364 39.1839 72.1438 39.2434 71.8939 39.2434C70.4544 39.2553 70.038 38.3867 70.038 37.1253ZM73.6309 37.3157C73.6309 35.745 74.8206 34.7931 78.4373 34.6622C78.4373 33.496 78.1161 32.4846 76.6765 32.4251C75.6653 32.3775 74.9039 32.6988 74.2138 33.0201C74.2138 33.0201 73.9997 32.4965 73.9878 32.4727C74.6183 32.1395 75.6296 31.7825 76.7598 31.8539C78.3897 31.961 79.1154 32.794 79.1154 34.2814C79.1154 34.2814 79.1154 38.8864 79.1154 38.9697C79.1154 39.053 79.0798 39.0768 79.0084 39.0768C78.8537 39.0768 78.5801 39.0768 78.5444 39.0768C78.4849 39.0768 78.4492 39.0649 78.4492 38.9697C78.4492 38.8864 78.4492 38.4343 78.4492 38.4343C77.9376 38.8864 76.974 39.2791 75.7962 39.2553C74.6064 39.2553 73.6309 38.6484 73.6309 37.3157ZM78.4373 37.4942C78.4373 37.3752 78.4373 35.7212 78.4373 35.3047C78.4373 35.2095 78.4016 35.1619 78.2707 35.1619C75.2727 35.2809 74.3328 36.1615 74.3328 37.28C74.3328 38.2915 75.0942 38.7079 76.0579 38.6841C76.9264 38.6841 77.8306 38.3391 78.354 37.756C78.4016 37.6965 78.4373 37.637 78.4373 37.4942ZM81.1855 39.0768V28.5102H81.8994V39.0768H81.1855ZM62.983 38.0773H61.3293C60.1872 38.0773 59.866 37.6489 59.866 37.0777C59.866 36.6137 60.1039 36.3043 60.4014 36.0425C60.7702 36.2091 61.4364 36.34 61.8766 36.34C63.6017 36.34 64.6843 35.4713 64.6843 34.1029C64.6843 33.4008 64.3988 32.913 63.8872 32.5798C63.9348 32.5798 65.3981 32.5798 65.3981 32.5798C65.3981 32.5798 65.3981 32.1395 65.3981 32.1038C65.3981 32.0562 65.3743 32.0205 65.3267 32.0205C65.2791 32.0205 62.9354 32.0205 62.9354 32.0205C62.6856 31.9372 62.3049 31.8658 61.8766 31.8658C60.211 31.8658 59.0451 32.675 59.0451 34.1029C59.0451 34.9359 59.5091 35.5308 59.9493 35.8045C59.6161 36.0544 59.1641 36.5185 59.1641 37.161C59.1641 37.7322 59.3901 38.1844 59.9493 38.4819C59.1522 38.7793 58.712 39.4338 58.712 40.2905C58.712 41.5757 59.9374 42.4086 61.8766 42.4086C64.2798 42.4086 65.5171 41.1473 65.5171 39.8265C65.5171 38.6246 64.7557 38.0773 62.983 38.0773ZM61.8766 32.4013C63.0306 32.4013 63.9943 33.0677 63.9943 34.1148C63.9943 35.2452 63.0068 35.8521 61.8766 35.8521C60.6869 35.8521 59.7589 35.2571 59.7589 34.1148C59.7589 32.9487 60.7107 32.4013 61.8766 32.4013ZM61.9599 41.8494C60.3419 41.8494 59.4139 41.1949 59.4139 40.2311C59.4139 39.4814 59.9612 38.7555 61.0795 38.7555C61.1866 38.7555 63.0187 38.7436 63.0187 38.7436C64.2084 38.7436 64.8033 39.0649 64.8033 39.9098C64.8033 40.8736 63.8277 41.8494 61.9599 41.8494Z" fill="white"/>
<path d="M44.3043 16.7543C44.0069 15.4573 43.8879 14.1841 44.3876 12.9346C44.7445 12.0422 45.4464 11.471 46.2435 11.0069C47.3975 10.3406 48.6705 9.9955 49.9673 9.75752C50.4194 9.67422 50.8715 9.60283 51.3355 9.51953C51.1332 10.0193 50.8953 10.4834 50.7644 10.9593C50.5146 11.8637 50.3361 12.7799 50.122 13.6962C49.8364 14.9456 49.1226 15.8619 47.8972 16.2902C47.5046 16.433 47.0644 16.4568 46.648 16.5044C46.0294 16.5639 45.3988 16.5758 44.7802 16.6234C44.6374 16.6353 44.4947 16.6948 44.3043 16.7543Z" fill="white"/>
<path d="M83.9695 16.9326C83.3628 16.9326 82.875 17.4205 82.875 18.0155C82.875 18.6223 83.3509 19.1102 83.9695 19.1102C84.5763 19.1102 85.0522 18.6342 85.0522 18.0155C85.0403 17.4086 84.5763 16.9326 83.9695 16.9326ZM84.5882 18.7056C84.4335 18.8603 84.2194 18.9555 83.9933 18.9555H83.9814C83.458 18.9555 83.0654 18.5509 83.0654 18.0274C83.0654 17.5038 83.458 17.0992 83.9576 17.0992H83.9695C84.4692 17.0992 84.8618 17.5038 84.8618 18.0274C84.8618 18.2891 84.7666 18.5271 84.5882 18.7056Z" fill="white"/>
<path d="M83.9817 18.1819L84.2197 18.5984H84.4814L84.2078 18.1462H84.2197C84.3743 18.1105 84.4576 18.0034 84.4576 17.813C84.4576 17.5512 84.3387 17.4561 84.0293 17.4561H83.5059V18.5984H83.7438V18.17L83.9817 18.1819ZM83.7438 17.6345H84.0174C84.1602 17.6345 84.2197 17.6821 84.2197 17.813C84.2197 17.9439 84.1602 17.9915 84.0174 17.9915H83.7438V17.6345Z" fill="white"/>
</svg>
